<svg width="32" height="32" viewBox="0 0 32 32" fill="none" xmlns="http://www.w3.org/2000/svg">
<rect x="1" y="1" width="30" height="30" rx="15" fill="#0EA5E9" style="fill:#0EA5E9;fill:color(display-p3 0.0549 0.6471 0.9137);fill-opacity:1;"/>
<path d="M7.54701 25.0697C7.29824 24.9481 7.13416 24.771 7.12358 24.4749C7.11564 24.2343 7.24002 24.0677 7.39881 23.9091C9.01048 22.3016 10.6222 20.6915 12.2338 19.0813C12.3644 18.9509 12.3644 18.8214 12.2338 18.6927C10.4343 16.8948 8.63469 15.0997 6.83776 13.3018C6.43021 12.8947 6.51754 12.4108 7.03625 12.1649C7.42527 11.9825 7.81694 11.8107 8.20597 11.6309C8.4071 11.5383 8.4071 11.5278 8.25096 11.3718C7.77989 10.9012 7.30883 10.4306 6.83776 9.95995C6.71073 9.83304 6.60752 9.69291 6.59694 9.50255C6.57841 9.17207 6.70279 8.97378 7.05742 8.8125C9.10311 7.87921 11.1514 6.94857 13.2024 6.02056C13.692 5.79848 13.8746 5.83549 14.2557 6.21357C16.0076 7.96382 17.7596 9.70878 19.5062 11.4643C19.6571 11.615 19.7312 11.6018 19.8741 11.459C20.93 10.3909 21.9965 9.3307 23.0604 8.27051C23.4229 7.90829 23.7617 7.91094 24.1242 8.27051C25.1722 9.31748 26.2202 10.3645 27.2708 11.4114C27.3688 11.5093 27.4561 11.6097 27.5117 11.7366V12.1438C27.3714 12.4505 27.1359 12.5774 26.7971 12.5721C26.035 12.5589 25.2754 12.5668 24.5133 12.5695C24.3192 12.5695 24.2222 12.669 24.2222 12.8682C24.2222 15.1076 24.2169 17.3496 24.2274 19.589C24.2274 19.9221 24.1269 20.168 23.894 20.4006C22.4358 21.8442 20.9882 23.2983 19.538 24.7472C19.4162 24.8688 19.2919 24.9798 19.1463 25.0697H7.54701ZM18.9055 23.5151C18.9875 23.4966 19.0272 23.4358 19.0749 23.3882C20.226 22.2408 21.372 21.0907 22.5284 19.9459C22.6581 19.8163 22.6502 19.7449 22.5258 19.6207C19.5777 16.6833 16.6348 13.7433 13.6947 10.7981C13.565 10.6685 13.4591 10.6394 13.2871 10.7187C11.7125 11.4405 10.1326 12.157 8.55265 12.8735C8.333 12.974 8.333 12.9766 8.49707 13.1432C8.52618 13.1723 8.5553 13.2013 8.58441 13.2304C11.956 16.5987 15.3275 19.967 18.6991 23.3353C18.7414 23.3776 18.7837 23.4226 18.8314 23.4622C18.8552 23.4834 18.887 23.4993 18.9081 23.5125L18.9055 23.5151ZM17.315 23.8218C17.307 23.7425 17.2647 23.7161 17.2329 23.6843C15.9785 22.4285 14.7215 21.1779 13.4697 19.9194C13.3453 19.7925 13.2792 19.8322 13.1786 19.9353C11.9348 21.1832 10.6883 22.4258 9.4445 23.6711C9.4048 23.7108 9.33864 23.7372 9.34922 23.8218H17.3176H17.315ZM13.655 9.23552C13.8905 9.21702 14.0493 9.34921 14.2028 9.50255C15.4201 10.7187 16.6375 11.9323 17.8496 13.1511C17.9739 13.2754 18.0507 13.2939 18.1724 13.1511C18.3127 12.9872 18.4715 12.8338 18.6329 12.6884C18.752 12.58 18.7493 12.506 18.6329 12.3923C16.9709 10.7372 15.3116 9.07953 13.655 7.42182C13.5544 7.32135 13.4671 7.29756 13.3321 7.35837C11.7257 8.09337 10.114 8.82308 8.50501 9.55014C8.35417 9.61889 8.3674 9.67705 8.47061 9.78016C8.80671 10.108 9.1428 10.4358 9.46302 10.7769C9.60064 10.9223 9.71443 10.9488 9.90233 10.8615C11.0191 10.3433 12.1412 9.84097 13.2606 9.33335C13.385 9.27783 13.5094 9.21702 13.6497 9.23552H13.655ZM22.9413 18.2221C22.9519 18.156 22.9598 18.1295 22.9598 18.1031C22.9598 16.3238 22.9598 14.5471 22.9625 12.7677C22.9625 12.5985 22.8831 12.5642 22.7349 12.5642C22.0759 12.5695 21.4169 12.5695 20.758 12.5642C20.6098 12.5642 20.5039 12.6144 20.4007 12.7175C19.9614 13.1617 19.5221 13.6085 19.0722 14.0395C18.9372 14.1716 18.9399 14.2457 19.0722 14.3752C20.3081 15.5993 21.536 16.8287 22.764 18.0582C22.8116 18.1057 22.8619 18.148 22.9386 18.2194L22.9413 18.2221ZM21.8298 11.2951H25.3469C24.7726 10.7187 24.2248 10.1741 23.6796 9.62417C23.595 9.53957 23.5367 9.5898 23.4759 9.65061C23.2324 9.89649 22.9863 10.1397 22.7402 10.3856C22.4464 10.6764 22.1553 10.9699 21.8324 11.2925L21.8298 11.2951Z" fill="white" style="fill:white;fill-opacity:1;"/>
</svg>
