<?xml version="1.0" encoding="utf-8"?>
<!-- Generator: Adobe Illustrator 28.3.0, SVG Export Plug-In . SVG Version: 6.00 Build 0)  -->
<svg version="1.1" id="Layer_1" xmlns="http://www.w3.org/2000/svg" xmlns:xlink="http://www.w3.org/1999/xlink" x="0px" y="0px"
	 viewBox="0 0 500 500" style="enable-background:new 0 0 500 500;" xml:space="preserve">
<style type="text/css">
	.st0{fill:#0EA5E9;}
	.st1{fill:#37474F;}
	.st2{fill:#263238;}
	.st3{fill:#F7A9A0;}
	.st4{fill:#FACC15;}
	.st5{fill:#FFFFFF;}
	.st6{opacity:0.1;enable-background:new    ;}
	.st7{opacity:0.3;fill:#FFFFFF;enable-background:new    ;}
	.st8{opacity:0.1;fill:#050400;enable-background:new    ;}
</style>
<g>
	<path class="st0" d="M410.6,492.4H89.4c-11,0-20-9-20-20V151.3c0-11,9-20,20-20h321.1c11,0,20,9,20,20v321.1
		C430.6,483.5,421.6,492.4,410.6,492.4z"/>
	<g id="freepik--Character--inject-94">
		<g>
			<g>
				<path class="st1" d="M362.5,492.4H243.2c-5.2-20.4-13.2-51.7-20.1-79c0,0,0,0,0,0c-0.4-1.7-0.8-3.3-1.3-5c-0.3-1-0.5-2-0.8-3
					c-6.7-26.2-12-47-12.1-47.5c-0.1-0.3-0.1-0.5-0.2-0.7c-0.1-0.2-0.1-0.4-0.1-0.4h115.2L362.5,492.4L362.5,492.4z"/>
				<g>
					<g>
						<path class="st1" d="M320.1,356.7L320.1,356.7c0,0.1,0,0.3,0,0.4c0,1.4,0,2.7,0,4.1c0,3.4-0.2,6.9-0.4,10.3
							c-0.9,13.9-2.9,27.6-5.3,40.2c-4.8,24.9-11.1,45-13.4,51.7c-0.5,1.5-0.8,2.3-0.8,2.4c0,0-4,2-9.2,4.5
							c-0.2,0.1-0.5,0.2-0.7,0.4c-6,3-13.4,6.6-18.2,9c-2.6,1.3-4.4,2.2-4.9,2.5c-0.1,0-0.1,0-0.1,0.1c0,0-0.2,4.1-0.5,10.1H142.1
							c2.5-21.1,2.8-23.9,2.8-23.9c-0.7-4.1-4-14.6-2.8-26.8c2.6-26.8,19-80.6,20.5-83.8c0.3-0.8,0.6-1.2,0.6-1.2h31.5l74.6,0
							L320.1,356.7L320.1,356.7z"/>
						<path class="st2" d="M267.1,482v0.3c0,3.4-0.1,6.8-0.1,10.2h-1.3c0.3-3.4,0.5-6.8,0.9-10.2c0-0.3,0-0.6,0.1-0.9
							c0-0.2,0.4-0.2,0.4,0C267.1,481.5,267.1,481.7,267.1,482z"/>
					</g>
					<g>
						<path class="st2" d="M252.2,488.5c5.3-3.7,11-6.7,16.6-9.9c5.7-3.2,11.5-6.3,17.5-9.1c11.6-5.4,23.9-9.3,36.2-13.1
							c0.3-0.1,0.5,0.4,0.2,0.5c-11.8,5.1-23.2,10.9-35,16.1c-5.9,2.6-11.9,5.1-17.8,7.7c-5.9,2.6-11.7,5.6-17.6,8
							C252.1,488.8,252,488.6,252.2,488.5L252.2,488.5z"/>
						<path class="st2" d="M284.5,430.7c0.1-5.8,0.6-11.6,0.8-17.4c0.7-13.6,1.2-27.4,2.5-41c0-0.5,0.8-0.5,0.8,0
							c0.2,10.6-0.2,21.2-0.4,31.7c-0.1,5.3-0.3,10.6-0.4,15.9c-0.1,5-0.5,10.1-0.1,15.1c0.3,3.8,1.1,11.2,6.1,11.7
							c4.7,0.4,7.2-4.6,8.4-8.3c3-9.4,4-19.5,5-29.3c0.6-5.8,1.1-11.6,1.5-17.4c0.3-5.9,0.8-14.5,0.5-20.4c0-0.4,0.5-0.3,0.6,0
							c0.9,5,1,15.2,0.8,21.2c-1.1,53.9-9.6,56.9-14.1,57.8c-0.6,0.1-1.1,0.2-1.7,0.2c0,1.2-0.2,2.5-0.3,3.7
							c-0.1,1.9-0.4,3.8-0.6,5.7c-0.2,1.9-0.7,3.7-1.2,5.5c-0.5,1.8-1,3.7-1.9,5.3c-0.2,0.3-0.5,0.1-0.5-0.2
							c-0.1-1.8,0.2-3.7,0.5-5.5c0.2-1.9,0.5-3.7,0.9-5.6c0.4-1.8,0.7-3.6,1.1-5.4c0.2-1.2,0.4-2.5,0.6-3.7
							c-2.9-0.4-5.3-2.3-6.6-5.2C284.5,440.8,284.4,435.6,284.5,430.7L284.5,430.7z"/>
						<path class="st2" d="M175.7,420.5c7.5,0.5,14.9,1.5,22.5,0.6c7.1-0.8,13.9-3.3,19.6-7.7c12.4-9.6,17.8-25.4,21.2-40.1
							c0.1-0.3,0.6-0.3,0.5,0.1c-1.4,12.8-4.2,26-12.4,36.3c-3.6,4.5-8,8.3-13.2,10.9c-5.4,2.7-11.5,3.6-17.4,3.6
							c-7,0-14.1-1.1-20.9-2.8C175,421.2,175.1,420.5,175.7,420.5L175.7,420.5z"/>
						<path class="st2" d="M339.8,417.5c-2.1-0.2-4.1-0.1-6.3-1.6c-2-1.5-3.9-4.3-5.6-8.9c-3.6-10-5.4-24.9-6.6-38.7
							c0-0.3-0.2-0.3-0.1,0c0.6,11.8,1.6,24.2,4.1,34.4c1.1,4.5,2.4,8.3,3.9,11.2c1.5,3,3.3,4.4,4.9,5c1.9,0.7,3.9,0.4,5.8-0.6
							C340,418.3,340,417.6,339.8,417.5L339.8,417.5z"/>
						<path class="st2" d="M174.4,360.4c-4,22.1-8.8,44.6-13.2,66.6c-1.1,6.6-3.1,13.1-2.7,19.8c0.5,6.8,1.7,13.5,3.2,20.1
							c-0.7,4.3-1.4,8.5-2.2,12.8c-0.7,4.2-1.5,8.4-2.3,12.6c0.4-4.3,0.9-8.5,1.3-12.8c0.4-4.2,1-8.5,1.5-12.7
							c-1.5-4.9-3.2-13.5-3.8-19.9c-0.2-2.3-0.2-4.7,0.2-7c1.3-9.1,3.2-17.9,5.1-26.8C165.3,395.5,169.5,377.9,174.4,360.4
							L174.4,360.4L174.4,360.4z"/>
					</g>
				</g>
			</g>
			<g>
				<path class="st3" d="M285.7,193.3c52,47.1,89,87.7,88.5,106.2c-1.1,41.4-22.9,50.3-26.8,49c-41-13.9-67.1-92-84.3-139.2
					C245.9,162.4,270.8,179.8,285.7,193.3L285.7,193.3z"/>
				<g>
					<path class="st4" d="M359.5,260.4l-65.5,35c0,0-26.7-58.3-35.8-93.1c-9.1-34.8,4.9-33.7,35.4-6.5
						C324.1,223.1,359.5,260.4,359.5,260.4L359.5,260.4z"/>
					<path class="st5" d="M278.9,216.5c-2.1,0-3.8,1.7-3.8,3.8c0,2.1,1.7,3.8,3.8,3.8c2.1,0,3.8-1.7,3.8-3.8
						C282.7,218.2,281,216.5,278.9,216.5z M278.9,223.5c-1.7,0-3.1-1.4-3.1-3.2s1.4-3.1,3.1-3.1c1.7,0,3.2,1.4,3.2,3.1
						S280.6,223.5,278.9,223.5z M320.7,221.2c-0.4,1.3-1.6,2.2-3,2.2c-1.7,0-3.1-1.4-3.1-3.2c0-1.4,0.9-2.5,2.1-2.9
						c-0.2-0.2-0.3-0.3-0.5-0.5c-1.3,0.6-2.2,1.9-2.2,3.4c0,2.1,1.7,3.8,3.8,3.8c1.6,0,3-1,3.5-2.4L320.7,221.2L320.7,221.2z
						 M259.5,185.6c-2.1,0-3.8,1.7-3.8,3.8c0,2.1,1.7,3.8,3.8,3.8c2.1,0,3.8-1.7,3.8-3.8S261.6,185.6,259.5,185.6z M259.5,192.5
						c-1.7,0-3.1-1.4-3.1-3.2s1.4-3.1,3.1-3.1c1.7,0,3.2,1.4,3.2,3.1S261.2,192.5,259.5,192.5z M317.7,278.9c-2.1,0-3.8,1.7-3.8,3.8
						c0,0.6,0.2,1.3,0.5,1.8l0.6-0.3c-0.2-0.4-0.4-1-0.4-1.5c0-1.7,1.4-3.1,3.1-3.1c1.2,0,2.3,0.7,2.8,1.7l0.6-0.3
						C320.4,279.8,319.1,278.9,317.7,278.9L317.7,278.9z M298.3,248c-2.1,0-3.8,1.7-3.8,3.8c0,2.1,1.7,3.8,3.8,3.8
						c2.1,0,3.8-1.7,3.8-3.8C302.1,249.7,300.4,248,298.3,248z M298.3,254.9c-1.7,0-3.1-1.4-3.1-3.2s1.4-3.1,3.1-3.1
						c1.7,0,3.2,1.4,3.2,3.1S300,254.9,298.3,254.9z M337.1,248c-2.1,0-3.8,1.7-3.8,3.8c0,2.1,1.7,3.8,3.8,3.8
						c2.1,0,3.8-1.7,3.8-3.8C340.8,249.7,339.2,248,337.1,248z M337.1,254.9c-1.7,0-3.1-1.4-3.1-3.2s1.4-3.1,3.1-3.1
						c1.7,0,3.2,1.4,3.2,3.1S338.8,254.9,337.1,254.9z"/>
					<path class="st2" d="M346.2,250.3c-25.3,16.8-49.8,27.7-54.7,30.5c-0.2,0.1-0.4-0.3-0.2-0.4c5-2.5,31.9-19,54.7-30.5
						C346.2,249.7,346.4,250.1,346.2,250.3L346.2,250.3z"/>
					<path class="st6" d="M345.2,268.8L294,295.4c0,0-26.7-58.3-35.8-93.1c-3.3-12.8-3.6-20.8-1-24.3L345.2,268.8L345.2,268.8z"/>
				</g>
			</g>
			<g>
				<path class="st4" d="M325.6,358.4l-8.5-53.6c0,0,16.7-21,5.8-44c-5.5-11.7-33.6-69-53.7-83.2c-16.5-11.7-44.6-5.4-54,10.8
					C194,224.9,173,268,160.8,358.5L325.6,358.4L325.6,358.4z"/>
				<path class="st5" d="M201.3,216.5c-0.5,0-1,0.1-1.4,0.3c-1.4,0.6-2.3,1.9-2.3,3.5c0,0.4,0,0.7,0.2,1l0,0
					c0.4,1.6,1.9,2.8,3.6,2.8c2.1,0,3.8-1.7,3.8-3.8S203.4,216.5,201.3,216.5L201.3,216.5z M201.3,223.5c-1.7,0-3.1-1.4-3.1-3.1l0,0
					c0-1,0.4-1.8,1.1-2.4c0.5-0.4,0.5-0.4,0,0c0.5-0.4,1.2-0.7,2-0.7c1.7,0,3.2,1.4,3.2,3.1S203.1,223.5,201.3,223.5z M240.1,216.5
					c-2.1,0-3.8,1.7-3.8,3.8c0,2.1,1.7,3.8,3.8,3.8s3.8-1.7,3.8-3.8C243.9,218.2,242.2,216.5,240.1,216.5z M240.1,223.5
					c-1.7,0-3.1-1.4-3.1-3.2s1.4-3.1,3.1-3.1s3.2,1.4,3.2,3.1S241.8,223.5,240.1,223.5z M278.9,216.5c-2.1,0-3.8,1.7-3.8,3.8
					c0,2.1,1.7,3.8,3.8,3.8c2.1,0,3.8-1.7,3.8-3.8C282.7,218.2,281,216.5,278.9,216.5z M278.9,223.5c-1.7,0-3.1-1.4-3.1-3.2
					s1.4-3.1,3.1-3.1c1.7,0,3.2,1.4,3.2,3.1S280.6,223.5,278.9,223.5z M220.7,185.6c-2.1,0-3.8,1.7-3.8,3.8c0,2.1,1.7,3.8,3.8,3.8
					c2.1,0,3.8-1.7,3.8-3.8S222.8,185.6,220.7,185.6z M220.7,192.5c-1.7,0-3.1-1.4-3.1-3.2s1.4-3.1,3.1-3.1s3.2,1.4,3.2,3.1
					S222.5,192.5,220.7,192.5z M259.5,185.6c-2.1,0-3.8,1.7-3.8,3.8c0,2.1,1.7,3.8,3.8,3.8c2.1,0,3.8-1.7,3.8-3.8
					S261.6,185.6,259.5,185.6z M259.5,192.5c-1.7,0-3.1-1.4-3.1-3.2s1.4-3.1,3.1-3.1c1.7,0,3.2,1.4,3.2,3.1S261.2,192.5,259.5,192.5
					z M201.3,278.9c-2.1,0-3.8,1.7-3.8,3.8c0,2.1,1.7,3.8,3.8,3.8s3.8-1.7,3.8-3.8S203.4,278.9,201.3,278.9z M201.3,285.9
					c-1.7,0-3.1-1.4-3.1-3.2c0-1.7,1.4-3.1,3.1-3.1s3.2,1.4,3.2,3.1C204.5,284.4,203.1,285.9,201.3,285.9z M240.1,278.9
					c-2.1,0-3.8,1.7-3.8,3.8c0,2.1,1.7,3.8,3.8,3.8s3.8-1.7,3.8-3.8S242.2,278.9,240.1,278.9z M240.1,285.9c-1.7,0-3.1-1.4-3.1-3.2
					c0-1.7,1.4-3.1,3.1-3.1s3.2,1.4,3.2,3.1C243.3,284.4,241.8,285.9,240.1,285.9z M278.9,278.9c-2.1,0-3.8,1.7-3.8,3.8
					c0,2.1,1.7,3.8,3.8,3.8c2.1,0,3.8-1.7,3.8-3.8S281,278.9,278.9,278.9z M278.9,285.9c-1.7,0-3.1-1.4-3.1-3.2
					c0-1.7,1.4-3.1,3.1-3.1c1.7,0,3.2,1.4,3.2,3.1C282,284.4,280.6,285.9,278.9,285.9z M317.7,278.9c-2.1,0-3.8,1.7-3.8,3.8
					c0,2.1,1.7,3.8,3.8,3.8s3.8-1.7,3.8-3.8S319.8,278.9,317.7,278.9z M317.7,285.9c-1.7,0-3.1-1.4-3.1-3.2c0-1.7,1.4-3.1,3.1-3.1
					c1.7,0,3.2,1.4,3.2,3.1C320.8,284.4,319.4,285.9,317.7,285.9z M185.5,250.7c-0.2,0.4-0.3,0.9-0.5,1.3l0,0c0,0.6-0.2,1.1-0.6,1.6
					h0c-0.2,0.5-0.3,0.9-0.5,1.4c1-0.7,1.7-1.9,1.7-3.2C185.7,251.4,185.7,251,185.5,250.7L185.5,250.7z M220.7,248
					c-2.1,0-3.8,1.7-3.8,3.8c0,2.1,1.7,3.8,3.8,3.8c2.1,0,3.8-1.7,3.8-3.8C224.5,249.7,222.8,248,220.7,248z M220.7,254.9
					c-1.7,0-3.1-1.4-3.1-3.2s1.4-3.1,3.1-3.1s3.2,1.4,3.2,3.1S222.5,254.9,220.7,254.9z M259.5,248c-2.1,0-3.8,1.7-3.8,3.8
					c0,2.1,1.7,3.8,3.8,3.8c2.1,0,3.8-1.7,3.8-3.8C263.3,249.7,261.6,248,259.5,248z M259.5,254.9c-1.7,0-3.1-1.4-3.1-3.2
					s1.4-3.1,3.1-3.1c1.7,0,3.2,1.4,3.2,3.1S261.2,254.9,259.5,254.9z M298.3,248c-2.1,0-3.8,1.7-3.8,3.8c0,2.1,1.7,3.8,3.8,3.8
					c2.1,0,3.8-1.7,3.8-3.8C302.1,249.7,300.4,248,298.3,248z M298.3,254.9c-1.7,0-3.1-1.4-3.1-3.2s1.4-3.1,3.1-3.1
					c1.7,0,3.2,1.4,3.2,3.1S300,254.9,298.3,254.9z M163.3,341.4c0,0.2-0.1,0.4-0.1,0.6c1.4,0.3,2.5,1.6,2.5,3.1
					c0,1.7-1.4,3.2-3.2,3.2c-0.1,0-0.2,0-0.3,0l0,0c0,0.2-0.1,0.4-0.1,0.6c0.1,0,0.3,0,0.4,0c2.1,0,3.8-1.7,3.8-3.8
					C166.3,343.3,165,341.8,163.3,341.4L163.3,341.4z M201.3,341.4c-2.1,0-3.8,1.7-3.8,3.8c0,2.1,1.7,3.8,3.8,3.8
					c2.1,0,3.8-1.7,3.8-3.8C205.1,343,203.4,341.4,201.3,341.4z M201.3,348.3c-1.7,0-3.1-1.4-3.1-3.2c0-1.7,1.4-3.1,3.1-3.1
					s3.2,1.4,3.2,3.1C204.5,346.8,203.1,348.3,201.3,348.3z M240.1,341.4c-2.1,0-3.8,1.7-3.8,3.8c0,2.1,1.7,3.8,3.8,3.8
					s3.8-1.7,3.8-3.8C243.9,343,242.2,341.4,240.1,341.4z M240.1,348.3c-1.7,0-3.1-1.4-3.1-3.2c0-1.7,1.4-3.1,3.1-3.1
					s3.2,1.4,3.2,3.1C243.3,346.8,241.8,348.3,240.1,348.3z M278.9,341.4c-2.1,0-3.8,1.7-3.8,3.8c0,2.1,1.7,3.8,3.8,3.8
					c2.1,0,3.8-1.7,3.8-3.8C282.7,343,281,341.4,278.9,341.4z M278.9,348.3c-1.7,0-3.1-1.4-3.1-3.2c0-1.7,1.4-3.1,3.1-3.1
					c1.7,0,3.2,1.4,3.2,3.1C282,346.8,280.6,348.3,278.9,348.3z M317.7,341.4c-2.1,0-3.8,1.7-3.8,3.8c0,2.1,1.7,3.8,3.8,3.8
					s3.8-1.7,3.8-3.8C321.5,343,319.8,341.4,317.7,341.4z M317.7,348.3c-1.7,0-3.1-1.4-3.1-3.2c0-1.7,1.4-3.1,3.1-3.1
					c1.7,0,3.2,1.4,3.2,3.1C320.8,346.8,319.4,348.3,317.7,348.3z M181.9,310.4c-2.1,0-3.8,1.7-3.8,3.8c0,2.1,1.7,3.8,3.8,3.8
					c2.1,0,3.8-1.7,3.8-3.8S184,310.4,181.9,310.4z M181.9,317.3c-1.7,0-3.1-1.4-3.1-3.2c0-1.7,1.4-3.1,3.1-3.1s3.2,1.4,3.2,3.1
					C185.1,315.9,183.7,317.3,181.9,317.3z M220.7,310.4c-2.1,0-3.8,1.7-3.8,3.8c0,2.1,1.7,3.8,3.8,3.8s3.8-1.7,3.8-3.8
					S222.8,310.4,220.7,310.4z M220.7,317.3c-1.7,0-3.1-1.4-3.1-3.2c0-1.7,1.4-3.1,3.1-3.1s3.2,1.4,3.2,3.1
					C223.9,315.9,222.5,317.3,220.7,317.3z M259.5,310.4c-2.1,0-3.8,1.7-3.8,3.8c0,2.1,1.7,3.8,3.8,3.8c2.1,0,3.8-1.7,3.8-3.8
					S261.6,310.4,259.5,310.4z M259.5,317.3c-1.7,0-3.1-1.4-3.1-3.2c0-1.7,1.4-3.1,3.1-3.1c1.7,0,3.2,1.4,3.2,3.1
					C262.6,315.9,261.2,317.3,259.5,317.3z M298.3,310.4c-2.1,0-3.8,1.7-3.8,3.8c0,2.1,1.7,3.8,3.8,3.8c2.1,0,3.8-1.7,3.8-3.8
					S300.4,310.4,298.3,310.4z M298.3,317.3c-1.7,0-3.1-1.4-3.1-3.2c0-1.7,1.4-3.1,3.1-3.1c1.7,0,3.2,1.4,3.2,3.1
					C301.4,315.9,300,317.3,298.3,317.3z"/>
				<g>
					<path class="st2" d="M289.3,291.3c-8.5,1-17.1,2.4-25.4,4.7c-4.1,1.1-8.2,2.5-12.2,3.9c-2,0.7-4,1.3-6.1,2
						c-2.1,0.6-4.3,1.3-6.5,1.4c-0.2,0-0.2,0.3,0,0.3c2.1,0,4.2,0,6.3-0.2c2-0.3,4-0.7,6-1.3c4.2-1.1,8.3-2.4,12.5-3.6
						c8.4-2.4,16.9-4.7,25.5-6.4C289.8,292,289.7,291.3,289.3,291.3L289.3,291.3z"/>
					<path class="st2" d="M310.7,298.5c-7-0.6-14.2-0.8-21.3-0.6c-3.6,0.1-7.1,0.4-10.6,0.8c-1.7,0.2-3.4,0.4-5.1,0.7
						c-1.9,0.3-3.7,0.8-5.5,1c-0.2,0-0.2,0.3,0,0.3c1.8-0.2,3.5-0.1,5.3-0.1c1.8-0.1,3.5-0.2,5.3-0.2c3.5-0.2,7.1-0.3,10.6-0.5
						c7.1-0.4,14.2-0.7,21.3-0.8C311.1,299.1,311.1,298.5,310.7,298.5L310.7,298.5z"/>
				</g>
			</g>
			<g>
				<path class="st3" d="M207.5,193.3c-49.8,49.5-84.8,89.3-83.5,107.7c3,41.3,26.4,48.4,30.2,46.9c40.3-15.8,61.6-91.8,76.6-139.7
					C245.7,160.6,221.7,179.1,207.5,193.3L207.5,193.3z"/>
				<g>
					<path class="st4" d="M136.8,261.3l67.1,31.9c0,0,24-56.9,31.4-92.2c7.5-35.2-6.4-33.4-35.7-4.8
						C170.5,224.9,136.8,261.3,136.8,261.3L136.8,261.3z"/>
					<path class="st5" d="M201.3,216.5c-2.1,0-3.8,1.7-3.8,3.8c0,2.1,1.7,3.8,3.8,3.8c2.1,0,3.8-1.7,3.8-3.8
						C205.1,218.2,203.4,216.5,201.3,216.5z M201.3,223.5c-1.7,0-3.1-1.4-3.1-3.2s1.4-3.1,3.1-3.1s3.2,1.4,3.2,3.1
						S203.1,223.5,201.3,223.5z M220.7,185.6c-2.1,0-3.8,1.7-3.8,3.8c0,2.1,1.7,3.8,3.8,3.8c2.1,0,3.8-1.7,3.8-3.8
						S222.8,185.6,220.7,185.6z M220.7,192.5c-1.7,0-3.1-1.4-3.1-3.2s1.4-3.1,3.1-3.1s3.2,1.4,3.2,3.1S222.5,192.5,220.7,192.5z
						 M201.3,278.9c-2.1,0-3.8,1.7-3.8,3.8c0,2.1,1.7,3.8,3.8,3.8c2.1,0,3.8-1.7,3.8-3.8S203.4,278.9,201.3,278.9z M201.3,285.9
						c-1.7,0-3.1-1.4-3.1-3.2c0-1.7,1.4-3.1,3.1-3.1s3.2,1.4,3.2,3.1C204.5,284.4,203.1,285.9,201.3,285.9z M146.8,250.6
						c-0.2,0.2-0.3,0.4-0.5,0.5c0,0.2,0.1,0.4,0.1,0.6c0,1.7-1.4,3.2-3.2,3.2c-0.1,0-0.3,0-0.4,0c-0.2,0.2-0.3,0.4-0.5,0.5
						c0.3,0.1,0.6,0.1,0.9,0.1c2.1,0,3.8-1.7,3.8-3.8C146.9,251.4,146.9,251,146.8,250.6L146.8,250.6z M181.9,248
						c-2.1,0-3.8,1.7-3.8,3.8c0,2.1,1.7,3.8,3.8,3.8s3.8-1.7,3.8-3.8C185.7,249.7,184,248,181.9,248z M181.9,254.9
						c-1.7,0-3.1-1.4-3.1-3.2s1.4-3.1,3.1-3.1s3.2,1.4,3.2,3.1S183.7,254.9,181.9,254.9z M220.7,248c-2.1,0-3.8,1.7-3.8,3.8
						c0,1.4,0.7,2.6,1.8,3.2c0.1-0.2,0.1-0.4,0.2-0.6c-0.8-0.6-1.4-1.5-1.4-2.6c0-1.7,1.4-3.1,3.1-3.1c0.1,0,0.2,0,0.3,0
						c0.1-0.2,0.1-0.4,0.2-0.6C221.1,248,220.9,248,220.7,248z"/>
					<path class="st2" d="M149.7,250.5c26.1,15.6,51,25.4,56,27.9c0.2,0.1,0.4-0.3,0.2-0.4c-5.1-2.2-32.7-17.4-56-28
						C149.6,250,149.4,250.4,149.7,250.5z"/>
					<path class="st2" d="M199.6,291c0.4,0,3.4,1.2,4,1.5c5.3-12.8,4.4-9.9,9.8-22.6c2.7-6.2,5.3-12.5,8-18.7
						c2.8-6.5,5.2-13.2,8.3-19.5c0.1-0.2,0.3-0.1,0.3,0.1c-1.6,6.1-4,12-6.2,17.9c0.5-0.9,1-1.9,1.6-2.8c1.3-2,2.5-4,3.7-6.1
						c0.2-0.3,0.7-0.1,0.5,0.2c-1.1,2-2,4.1-2.9,6.2c-0.9,2.1-1.9,4.1-3,6.1c-1,2-2.2,3.8-3.3,5.7c-0.1,0.2-0.3,0.5-0.4,0.7
						c-1.4,3.7-2.8,7.4-4.3,11.1c-5.3,12.8-11,23-11.2,23c-0.9-0.2-4.5-2.2-4.9-2.4C199.3,291.2,199.4,291,199.6,291L199.6,291z"/>
				</g>
			</g>
			<g>
				<path class="st2" d="M219.4,116.9c3.9,2.3,8.9,2.3,12.7-0.2c3.7-2.5,5.6-7,5.1-11.4c4.3,2.1,9.5,2.2,13-1.6
					c3.7-3.9,3.4-9.6,0.2-13.7c0,0-0.1,0-0.1,0c2.5,4,2.8,9.4-0.7,13c-3,3.1-6.7,3.3-10.3,2.1c3.5-0.1,7.1-1.4,9.5-4.1
					c2.6-3,3.3-7.5,1.4-11c4.1-2,7.7-5.5,8.5-10.2c0.7-3.9-0.9-8-4.2-10.1c3.6-2.7,5.4-7.5,4.2-12c-1.1-4.1-4.7-7.2-8.8-8.1
					c5.1-4.5,3.7-12.9-2.6-15.6c1.5-1.9,1.6-4.6,0.5-6.8c-1.3-2.6-3.9-4-6.5-4.8c0.2-2.5-0.8-5.1-2.8-6.7c-2.8-2.1-6.5-1.6-8.9,0.6
					c-2.7-3.6-6.1-7.2-10.7-8.2c-3.8-0.8-8.1,0.4-10.2,3.6c-5.7-5.9-15.1-5.6-20.3,0.8c-2.9-1.7-6.6-1.6-9.6,0.1
					c-3,1.7-4.4,3.6-5,4.6c-2.8-1.3-6.1-0.6-8.2,1.6c-2.1,2.2-2.5,5-2.3,7.8c-0.3,0.7-0.8,1.3-1.5,1.9c-3.3,2.6-5.1,6.5-4.8,10.7
					c-4.7,1.7-6.9,7.6-4.4,12c-4.1,3.1-4.8,9.4-1.6,13.3c-2.9,2.8-4.6,6.7-4.4,10.7c0.1,3.1,1.6,6.5,4.7,7.5
					c-1.6,1.8-0.8,4.8,0.8,6.4c0.6,0.6,1.4,1.1,2.1,1.6c0.9,0.6,2.2,1,2.9,1.9c0.7,0.9,0.6,2.2,0.8,3.2c0.2,0.7,0.4,1.5,0.7,2.2
					c2.5,5.3,8.7,8.2,14.3,6.7c0.9,4,4.9,6.2,8.8,6.9c1.3,0.2,2.5,0.3,3.8,0.3c1.2,0,2.2,0.1,3.2,0.8c0.6,0.4,1.1,1,1.8,1.4
					c2.1,1.4,4.6,1.2,6.9,0.7C200.3,125.5,213.8,125.4,219.4,116.9L219.4,116.9z M165.3,20.5c1.9-2.7,5-3.7,8.2-3
					c-0.1,0.2-0.2,0.3-0.2,0.3s-1,0-1.5,0.1c-0.9,0.1-1.8,0.4-2.7,0.8c-1.8,0.8-3.3,2.2-4.3,3.8c-0.4,0.7-0.7,1.5-1,2.4
					c0,0.1-0.1,0.2-0.1,0.3C163.9,23.6,164.3,22,165.3,20.5L165.3,20.5z M238.2,18.3c-2.2-2.1-5.5-2.7-8.2-1.4
					c0-0.1-0.1-0.1-0.1-0.2c2.6-1.8,5.4-2.7,8.3-0.5c2,1.5,2.5,3.7,2.3,5.9h0C240,20.7,239.3,19.3,238.2,18.3L238.2,18.3z
					 M197.9,114.7c0,0,0.1,0,0.1,0c3.8,6.3,11.7,8.1,17.6,4.8C209.3,123.6,201.4,123.5,197.9,114.7L197.9,114.7z"/>
				<g>
					<path class="st3" d="M231.2,186c1,3.3,19,29.1,36.3,24.5c7.3-1.9,0-30.2,0-30.2l4.6-30.3L233,128.8
						C233,128.8,230.8,184.7,231.2,186L231.2,186z"/>
					<path class="st2" d="M272.2,150l-4.5,29.5c-4.4-0.4-24.2-3.8-35.5-29.7c0.4-11.4,0.8-21,0.8-21L272.2,150z"/>
				</g>
				<g>
					<path class="st3" d="M307.7,103.8c15.3,47.9-11.6,62.5-21.9,65.8c-9.4,3-41.7,12-61.9-34s-2.8-68.3,18.3-76.3
						S292.3,55.9,307.7,103.8L307.7,103.8z"/>
					<g>
						<path class="st2" d="M291.2,91c-1.2,0-2.3,0.2-3.5,0.3c-1.3,0.1-2.4,0.1-3.5,0.9c-0.6,0.5-0.7,1.6-0.3,2.2
							c0.9,1.4,2.6,1.7,4.2,1.6c1.7-0.1,3.1-0.6,4.4-1.8C293.8,93.1,292.7,91,291.2,91L291.2,91z"/>
						<path class="st2" d="M257.6,110.7c0.7-0.9,1.5-1.7,2.4-2.6c0.9-1,1.5-1.8,2.9-2.2c0.7-0.2,1.6,0.4,1.9,1.1
							c0.5,1.6-0.3,3.1-1.3,4.3c-1.1,1.3-2.4,2-4.1,2.3C257.7,114,256.7,112,257.6,110.7L257.6,110.7z"/>
						<g>
							<g>
								<path class="st2" d="M269.1,119c-0.1-0.1-0.2,0.2-0.2,0.4c1,3.3,1.6,7.2-1.1,9.1c-0.1,0.1,0,0.2,0.1,0.2
									C271.4,127.1,270.5,121.9,269.1,119L269.1,119z"/>
								<path class="st2" d="M265.2,116.4c-5.4,1-3,11.8,2.1,10.8C272.2,126.3,269.7,115.5,265.2,116.4z"/>
							</g>
							<path class="st2" d="M263.2,117.4c-0.8,0.8-1.5,2.1-2.6,2.5c-1.3,0.4-2.5-0.5-3.6-1.4c-0.1-0.1-0.2,0-0.2,0.2
								c0.4,2.1,1.7,4,4,3.8c2.1-0.2,3.1-2.3,3.2-4.5C263.9,117.5,263.5,117.1,263.2,117.4L263.2,117.4z"/>
						</g>
						<g>
							<g>
								<path class="st2" d="M288.3,113.1c0-0.1,0.3,0.1,0.3,0.2c0.6,3.4,1.9,7.1,5.2,7.6c0.1,0,0.1,0.2,0,0.2
									C290,121.4,288.4,116.4,288.3,113.1L288.3,113.1z"/>
								<path class="st2" d="M290.5,108.9c5.3-1.6,8.1,9.1,3.2,10.6C288.9,121,286.1,110.3,290.5,108.9z"/>
							</g>
							<path class="st2" d="M293,109.1c1,0.3,2.1,1.2,3.1,1c1.2-0.2,1.8-1.6,2.2-2.9c0-0.1,0.1-0.1,0.2,0.1c0.6,2,0.5,4.3-1.4,5.2
								c-1.7,0.8-3.5-0.6-4.5-2.5C292.4,109.6,292.5,108.9,293,109.1L293,109.1z"/>
						</g>
						<path class="st2" d="M270.6,147.4c0.9,0.6,2,1.6,3.2,1.5c1.2-0.1,2.5-0.9,3.5-1.5c0.1-0.1,0.2,0,0.2,0.1
							c-0.6,1.5-2.3,2.6-3.9,2.6c-1.6,0-2.6-1.2-3.2-2.5C270.2,147.4,270.5,147.3,270.6,147.4L270.6,147.4z"/>
						<path class="st2" d="M276.2,140.5c5.2-3,8.1-2.9,11.5-3.5c0.3-0.2,1.1-0.7,1.1-1.1v0c0-0.1-2.4-6.7-2.4-6.7
							c1,0.2,6.3,0.8,5.8-0.5c-4-10.4-8.5-21.9-14.6-31.4c-0.2-0.3-0.7-0.1-0.6,0.3c3.5,10.1,8.7,19.6,12.3,29.7
							c-1.6-0.1-4.3-0.4-5.6,0.1c-0.3,0.2,2.9,7,3.1,8.1c0,0-5.4-0.5-11.2,4.6C274.3,141.2,274.3,141.6,276.2,140.5L276.2,140.5z"/>
					</g>
					<g>
						<path class="st2" d="M268,63.8c0,0,3.1,7,1.5,12.7c-3.4,11.7-16.9,11-20.7,16.1c-3.5,4.7-0.7,12.9-3.8,17.5
							c-4.3,6.5-11.8,5.5-12.1,9.4s-0.8,16.3-5.3,18.6c-4.5,2.3-39.6-73.8,23.3-81.5c0,0,8-4.9,22.4-0.4c15.9,5,26.3,28.2,26.3,28.2
							s-0.4-0.3-2.8-1.8c-3.4-2.2-5-4.5-7.5-5.8c-3.9-2.2-5.7-0.8-9.7-2.9C273.4,70.8,268,63.8,268,63.8L268,63.8z"/>
						<path class="st2" d="M266.5,60.5c1.5,3,2.7,6.1,3.4,9.3c0.8,3.2,1.2,6.5,0.2,9.5c-1,2.9-3.5,5.2-6.2,6.8c-2.8,1.6-6,2.4-9,4.2
							c-1.4,0.9-2.8,2.1-3.7,3.8c-0.8,1.7-0.9,3.5-1,5.1c-0.1,3.3-0.3,6.6-2,9.3c-1.7,2.6-4.6,4.5-7.8,4.9c-3.2,0.5-6.8,0.2-9.6,2.1
							c3-1.7,6.4-1,9.7-1.3c3.4-0.2,6.7-2.1,8.7-5c2.2-2.9,2.3-6.6,2.5-9.8c0.1-1.6,0.3-3.2,1-4.6c0.6-1.3,1.9-2.4,3.2-3.2
							c2.7-1.7,5.9-2.6,8.9-4.3c1.5-0.8,2.9-1.9,4-3.2c1.2-1.2,2.2-2.8,2.7-4.5c0.9-3.4,0.3-6.9-0.6-10.1
							C269.6,66.4,268.2,63.4,266.5,60.5L266.5,60.5z"/>
						<path class="st2" d="M268.2,63.2c1.1,2.9,2.6,5.6,4.4,8.2c1.8,2.5,4.3,4.8,7.4,5.9c1.5,0.6,3.2,0.7,4.6,1
							c1.4,0.2,2.8,0.8,3.7,1.7c1,1,2,2.4,3.3,3.3c1.3,0.9,2.8,1.5,4.3,1.7c-1.4-0.6-2.8-1.2-3.9-2.3c-1.1-1-1.9-2.2-2.9-3.5
							c-1.2-1.4-2.8-1.9-4.3-2.3c-1.6-0.3-3-0.4-4.3-1c-2.7-1-5-2.9-7-5.2C271.6,68.3,269.9,65.8,268.2,63.2L268.2,63.2z"/>
					</g>
					<g>
						<path class="st3" d="M237.2,131.3c0,0-14.2-12.9-20.3-7.5c-6.1,5.4,7,25.8,15.9,26.9c8.8,1.2,10.1-7,10.1-7L237.2,131.3
							L237.2,131.3z"/>
						<path class="st2" d="M220.8,129.6c-0.1,0-0.1,0.2,0,0.2c6.2,1,10.5,5.6,13.8,10.6c-2.2-1.7-4.8-2.4-7.1,0.3
							c-0.1,0.1,0.1,0.3,0.2,0.3c2.2-1,4-1,6,0.5c1.4,1.1,2.6,2.6,3.7,3.9c0.4,0.4,1.2,0,0.9-0.6c0,0,0-0.1-0.1-0.1
							C236.8,137.4,228.8,128.5,220.8,129.6L220.8,129.6z"/>
					</g>
				</g>
				<g>
					<g>
						<path class="st4" d="M228.7,149.6c0.6,2.2-7.6-3.8-8.2-4.9c-0.6-1-5.7-3.3-7.3-5.2c-1.6-1.9-5.3-7.8-5.8-9.3
							c-0.5-1.5-4.2-4.7-4.8-7.4c-0.6-2.7-4.9-27.1,7.6-47C222.8,55.9,237,51.6,237,51.6s9.7-4,21.7-5.9c12-1.8,35.3,22.1,35.5,22.7
							s-0.2,2.7,0.7,4.2c0.9,1.5,3.1,2.9,2.6,4.7c-0.6,1.8,2.7,5.4,3.1,7.1c0.3,1.7,0,2.3,0.6,3.4c0.6,1.1-11.7-27.8-50.3-30.1
							C250.8,57.7,216.1,102.5,228.7,149.6L228.7,149.6z"/>
						<path class="st4" d="M301,87.5c0,0.1,0.1,0.2,0.1,0.3C301.2,87.9,301.1,87.8,301,87.5z"/>
						<path class="st4" d="M301,87.5c0,0.1,0.1,0.2,0.1,0.3C301.2,87.9,301.1,87.8,301,87.5z"/>
						<path class="st7" d="M278.6,55.8c0.4-0.2,0.8-0.3,1.2-0.4l0,0c1.2,0.9,2.3,1.8,3.4,2.8l0,0c0.2,1.2-0.4,2.5-1.6,3.2
							c-1.5,0.8-3.4,0.3-4.3-1.2C276.5,58.5,277.1,56.6,278.6,55.8z M261.1,59.1c2.1,0.4,4.2,1,6.1,1.6c0.3-0.8,0.2-1.7-0.2-2.5
							c-0.8-1.5-2.8-2.1-4.3-1.2C261.8,57.3,261.3,58.2,261.1,59.1L261.1,59.1z M285.5,69.7c1.7,1.3,3.3,2.6,4.7,3.9
							c1.3-0.9,1.7-2.7,0.9-4.1c-0.8-1.5-2.8-2.1-4.3-1.3C286.2,68.6,285.7,69.1,285.5,69.7L285.5,69.7z M215.8,68
							c0.9,1.2,2.6,1.6,4,0.8c1.5-0.8,2.1-2.8,1.2-4.3c-0.3-0.5-0.6-0.9-1.1-1.2C218.6,64.7,217.2,66.3,215.8,68L215.8,68z
							 M222.2,93.9c0.8,1.5,2.8,2.1,4.3,1.3s2.1-2.8,1.3-4.3c-0.8-1.5-2.8-2.1-4.3-1.3C222,90.4,221.4,92.4,222.2,93.9z M251.1,49.1
							c0.8,1.5,2.8,2.1,4.3,1.3c1.5-0.8,2.1-2.8,1.2-4.3v0c-2.1,0.4-4,0.8-5.9,1.2l0,0C250.7,47.9,250.8,48.5,251.1,49.1L251.1,49.1
							z M236,59.9c0.8,1.5,2.8,2.1,4.3,1.3c1.5-0.8,2.1-2.8,1.3-4.3c-0.8-1.5-2.8-2.1-4.3-1.3C235.8,56.4,235.2,58.3,236,59.9z
							 M230.6,76.7c0.8,1.5,2.8,2.1,4.3,1.3c1.5-0.8,2.1-2.8,1.3-4.3c-0.8-1.5-2.8-2.1-4.3-1.3S229.7,75.2,230.6,76.7z M208.2,85.3
							c0.8,1.5,2.8,2.1,4.3,1.3c1.5-0.8,2.1-2.8,1.3-4.3c-0.8-1.5-2.8-2.1-4.3-1.3S207.4,83.8,208.2,85.3z M213.3,108.9
							c0.8,1.5,2.8,2.1,4.3,1.3s2.1-2.8,1.3-4.3c-0.8-1.5-2.8-2.1-4.3-1.3C213,105.4,212.5,107.3,213.3,108.9z M223.6,143
							c0.8,1.4,2.5,2,3.9,1.4c-0.4-2-0.7-4.1-1-6.1c-0.6,0-1.2,0.1-1.7,0.4C223.3,139.6,222.7,141.5,223.6,143L223.6,143z
							 M225.4,116.6c0.3,0.5,0.7,0.9,1.1,1.2c0.2-1.9,0.5-3.8,0.8-5.7c-0.2,0.1-0.5,0.1-0.7,0.3
							C225.1,113.2,224.5,115.1,225.4,116.6L225.4,116.6z M201.5,104.1c0.8,0.3,1.7,0.2,2.5-0.2c1.5-0.8,2.1-2.8,1.2-4.3
							c-0.6-1.1-1.9-1.8-3.1-1.6C201.8,100.1,201.6,102.1,201.5,104.1z M213.4,127.5c0.8,1.5,2.8,2.1,4.3,1.3
							c1.5-0.8,2.1-2.8,1.3-4.3c-0.8-1.5-2.8-2.1-4.3-1.3S212.5,125.9,213.4,127.5z M208.8,133c0.8,1.3,1.8,2.9,2.7,4.2
							c0.3-0.8,0.2-1.8-0.2-2.6C210.8,133.7,209.9,133.1,208.8,133L208.8,133z M202.3,121.6c0.5,0,1.1-0.1,1.6-0.4
							c1.5-0.8,2.1-2.8,1.2-4.3c-0.7-1.3-2.2-1.9-3.6-1.5C201.8,118.1,202.1,120.3,202.3,121.6L202.3,121.6z"/>
						<g>
							<path class="st8" d="M220.6,144.7c-0.8-2.1-1.2-4.3-1.6-6.5c-0.4-2.2-0.7-4.4-1-6.6c-0.6-4.4-1.2-8.9-1.6-13.3
								c-0.1-1.1-0.2-2.2-0.2-3.3c0-1.1,0.3-2.1,0.5-3.2c0.5-2.2,1.3-4.3,1.9-6.4c0.7-2.1,1.4-4.3,2.2-6.4l2.2-6.4
								c-1.8,4.1-3.4,8.3-4.9,12.5c-0.8,2.1-1.5,4.3-2,6.4c-0.3,1.1-0.6,2.2-0.6,3.4c0,1.2,0.1,2.3,0.2,3.4c0.4,4.5,1,8.9,1.8,13.4
								c0.4,2.2,0.8,4.4,1.3,6.6c0.2,1.1,0.5,2.2,0.8,3.3C219.7,142.6,220,143.7,220.6,144.7L220.6,144.7z"/>
							<path class="st8" d="M212.6,99.2c-1.3,2.3-2.4,4.8-3.3,7.3c-0.9,2.5-1.7,5.1-2.3,7.7c-0.5,2.6-1,5.3-0.9,8
								c0,2.7,0.3,5.4,1.3,7.9c-0.1-0.7-0.3-1.3-0.4-2c-0.1-0.3-0.1-0.6-0.1-1l-0.1-1c0-0.3-0.1-0.7-0.1-1v-1c0-0.7-0.1-1.3,0-2
								l0.1-2l0.3-2c0.1-0.7,0.2-1.3,0.3-2c0.1-0.6,0.2-1.3,0.4-2c0.5-2.6,1.3-5.2,2.1-7.7c0.4-1.3,0.8-2.5,1.3-3.8
								C211.6,101.7,212.1,100.5,212.6,99.2L212.6,99.2z"/>
							<path class="st8" d="M294.2,71.4c-1.6-2-3.6-3.6-5.5-5.3c-2-1.6-4-3.2-6-4.7c-2.1-1.5-4.1-3-6.3-4.3
								c-2.3-1.2-4.7-2.2-7.2-2.7c1.2,0.4,2.4,0.9,3.5,1.4c1.1,0.5,2.3,1.1,3.3,1.8c1.1,0.7,2.1,1.4,3.1,2.2l3.1,2.3l6.1,4.6
								c1,0.8,2,1.5,3,2.3C292.3,69.7,293.3,70.5,294.2,71.4L294.2,71.4z"/>
							<path class="st8" d="M297.5,78.5c-1-1.5-2.3-2.9-3.5-4.2c-1.2-1.4-2.6-2.6-3.9-3.9c-0.7-0.6-1.4-1.2-2.2-1.7
								c-0.8-0.5-1.5-1-2.3-1.5l-2.4-1.4c-0.8-0.4-1.6-0.9-2.4-1.4c0.7,0.6,1.5,1.1,2.2,1.7l2.2,1.6c0.7,0.5,1.5,1,2.2,1.6
								c0.7,0.5,1.4,1.1,2.1,1.7c1.4,1.2,2.7,2.4,4,3.7c0.7,0.6,1.3,1.3,2,1.9C296.2,77.2,296.9,77.9,297.5,78.5L297.5,78.5z"/>
						</g>
						<path class="st8" d="M212.9,71.8c6.7,1.3,21.9,3.9,25,3c0.7-0.2,1.8-0.7,3.1-1.3c5.2-9.8,9.8-15.8,9.8-15.8
							c4.8,0.3,9.3,1,13.3,2c3.3-3.2,6.7-8,7.9-9.8c-4.8-2.9-9.6-4.8-13.3-4.2c-12,1.8-21.7,5.9-21.7,5.9S224.7,55.3,212.9,71.8
							L212.9,71.8z"/>
					</g>
					<g>
						<g>
							<path class="st4" d="M247.2,51.5c0,0,8.8-18.4,26.1-22.2c0,0,1.1,17.5-4.4,23.8c-2.8,3.2-16.4,5.8-18.2,3.7
								C248.8,54.7,247.2,51.5,247.2,51.5L247.2,51.5z"/>
							<path class="st7" d="M263.8,33.1c0.3,1.4-0.2,2.8-1.5,3.5c-1,0.6-2.3,0.5-3.2-0.1C260.5,35.3,262.1,34.2,263.8,33.1
								L263.8,33.1z M269.5,46c0.5,0.8,1.2,1.4,2.1,1.6c0.6-2,1-4.1,1.2-6.2c-0.7-0.1-1.4,0-2.1,0.3C269.3,42.6,268.7,44.5,269.5,46
								L269.5,46z M251.2,49.1c0.8,1.5,2.8,2.1,4.3,1.3s2.1-2.8,1.3-4.3c-0.8-1.5-2.8-2.1-4.3-1.3S250.3,47.6,251.2,49.1z"/>
							<path class="st8" d="M247.2,51.5c0,0,1.7,3.2,3.5,5.3c0.1,0.1,0.2,0.2,0.3,0.2c0.1,0.1,0.2,0.1,0.4,0.2
								c0.1,0,0.2,0.1,0.4,0.1c1.6,0.4,4.6,0.2,7.6-0.4c-0.6-2.3-1.6-5.2-2.7-7.3c-0.9-1.8-3.4-3.2-5.7-4.2
								C248.4,48.9,247.1,51.5,247.2,51.5L247.2,51.5z"/>
						</g>
						<g>
							<path class="st4" d="M243.1,54.3c0,0-24.8-1.2-36,5.4c0,0,7.7,12.1,20.3,13.9c5.6,0.8,20.6-10.8,19.4-13.6
								C245.7,57.2,243.1,54.4,243.1,54.3L243.1,54.3z"/>
							<path class="st7" d="M216.8,63.2c1.5-0.8,3.4-0.3,4.3,1.3c0.8,1.5,0.3,3.4-1.3,4.3c-1.5,0.8-3.4,0.3-4.3-1.3
								C214.7,66,215.2,64.1,216.8,63.2z M236.1,59.9c0.8,1.5,2.8,2.1,4.3,1.3c1.5-0.8,2.1-2.8,1.3-4.3c-0.8-1.5-2.8-2.1-4.3-1.3
								S235.2,58.3,236.1,59.9z M231.1,73c0.7-0.2,1.5-0.6,2.3-1c-0.5,0-1,0.1-1.5,0.4C231.6,72.6,231.3,72.8,231.1,73z"/>
							<path class="st8" d="M237.5,54.3c-0.2,2.3-0.1,5.6,1.3,8c0.8,1.4,2.1,2.6,3.6,3.7c2.9-2.5,4.9-4.9,4.4-6
								c-1.2-2.8-3.7-5.7-3.7-5.7S240.9,54.2,237.5,54.3L237.5,54.3z"/>
						</g>
						<path class="st4" d="M241.2,60.1c2.5,3.7,7.5,4.7,11.2,2.3c3.7-2.5,4.7-7.5,2.3-11.2c-2.5-3.7-7.5-4.7-11.2-2.3
							C239.7,51.4,238.7,56.4,241.2,60.1z"/>
					</g>
				</g>
			</g>
			<g>
				<path class="st3" d="M155.8,345.8c9-16.3,15.4-52.9-3.7-124.1c-2.6-9.8-74.9,4-72.7,14.7c2.9,13.4,16.9,65,18.4,68.6
					C110.6,335.7,149.7,356.9,155.8,345.8L155.8,345.8z"/>
				<path class="st2" d="M161.8,332.4c2-5.3,3.2-10.8,4-16.4c0.4-2.8,0.7-5.6,0.9-8.4c0.2-2.9,0.1-5.7,0-8.5
					c-0.3-5.6-0.9-11.2-1.7-16.7c-0.8-5.5-1.9-11.1-3.5-16.4c0.9,5.5,1.5,11.1,2,16.6c0.5,5.6,1,11.1,1.2,16.7
					c0.1,2.8,0.2,5.5,0,8.3c-0.2,2.8-0.3,5.5-0.6,8.3C163.6,321.4,162.9,326.9,161.8,332.4L161.8,332.4z"/>
				<g>
					<g>
						<path class="st3" d="M116.7,252.2c-8.3-0.2-53.1-3.6-63.5-6.8c-17.9-5.4-33.3-12.9-30.5-20.8c2.6-7.3,22.5-0.5,22.5-0.5
							S17.6,207.9,20.9,197c2.5-8.1,14.8-0.6,14.8-0.6s-12.8-10.5-7.4-17.1c4.5-5.4,30.8,11.2,30.8,11.2s-24.7-18.7-15-25.7
							c6.4-4.6,18.1,9.9,32.8,14.1c1.3,0.4,14,3,26.6,5.5c13.1,2.7,49.1,39.2,49.1,39.2L116.7,252.2L116.7,252.2z"/>
						<path class="st2" d="M59.6,190.4c8.7,4.9,15.2,6.5,21,8.1c0.2,0,0.1,0.5-0.1,0.5c-10.4-1.2-13.4-2.3-21.3-8.1
							C58.8,190.5,59.1,190.1,59.6,190.4z"/>
						<path class="st2" d="M36.3,196.2c14.8,10.4,23.1,13.2,40.7,17c0.2,0,0.2,0.5-0.1,0.4c-17.5-2.2-27.6-4.3-41-16.6
							C35.3,196.5,35.7,195.8,36.3,196.2L36.3,196.2z"/>
						<path class="st2" d="M45.5,223.8c9.8,2.9,12.6,3.2,23.2,5.3c0.3,0,0.3,0.6,0,0.6c-10.7-0.5-14.6-0.9-23.4-5.4
							C44.7,224,44.8,223.6,45.5,223.8L45.5,223.8z"/>
					</g>
					<g>
						<path class="st3" d="M152.6,223.6c0,0-8.2-34.3-23.4-46.4c-7.6-6.1-43.6-23.4-47.9-16.2c-5.5,9.3,12.3,23.5,22,29.3
							c0,0-12.8,21.6-2.2,34.5C111.7,237.8,152.6,223.6,152.6,223.6z"/>
						<path class="st2" d="M80.6,164c1.1,12.1,14.3,18.9,23.2,25.3c0.7,0.5,0.5,1.2,0.1,1.6c-4.8,9.4-8.7,24-3.5,33.8
							c0.1,0.3-0.2,0.5-0.4,0.3c-7.1-9.7-4.3-24.4,1.5-34.4c-9.3-6.4-22.2-13.8-21-26.6C80.5,164,80.6,164,80.6,164L80.6,164z"/>
					</g>
				</g>
			</g>
			<g>
				<path class="st3" d="M344.2,345.6c-9-16.3-15.4-52.9,3.7-124.1c2.6-9.8,74.9,4,72.7,14.7c-2.9,13.4-16.9,65-18.4,68.6
					C389.4,335.4,350.3,356.6,344.2,345.6L344.2,345.6z"/>
				<path class="st2" d="M338.2,332.1c-2-5.3-3.2-10.8-4-16.4c-0.4-2.8-0.7-5.6-0.9-8.4c-0.2-2.9-0.1-5.7,0-8.5
					c0.3-5.6,0.9-11.2,1.7-16.7c0.8-5.5,1.9-11.1,3.5-16.4c-0.9,5.5-1.5,11.1-2,16.6c-0.5,5.6-1,11.1-1.2,16.7
					c-0.1,2.8-0.2,5.5,0,8.3c0.2,2.8,0.3,5.5,0.6,8.3C336.4,321.1,337.1,326.6,338.2,332.1L338.2,332.1z"/>
				<g>
					<g>
						<path class="st3" d="M383.3,251.9c8.3-0.2,53.1-3.6,63.5-6.8c17.9-5.4,33.3-12.9,30.5-20.8c-2.6-7.3-22.5-0.5-22.5-0.5
							s27.6-16.2,24.2-27.1c-2.5-8.1-14.8-0.6-14.8-0.6s12.8-10.5,7.4-17.1c-4.5-5.4-30.8,11.2-30.8,11.2s24.7-18.7,15-25.7
							c-6.4-4.6-18.1,9.9-32.8,14.1c-1.3,0.4-14,3-26.6,5.5c-13.1,2.7-49.1,39.2-49.1,39.2L383.3,251.9L383.3,251.9z"/>
						<path class="st2" d="M440.4,190.1c-8.7,4.9-15.2,6.5-21,8.1c-0.2,0-0.1,0.5,0.1,0.5c10.4-1.2,13.4-2.3,21.3-8.1
							C441.2,190.2,440.9,189.9,440.4,190.1z"/>
						<path class="st2" d="M463.7,196c-14.8,10.4-23.1,13.2-40.7,17c-0.2,0-0.2,0.5,0.1,0.4c17.5-2.2,27.6-4.3,41-16.6
							C464.7,196.3,464.3,195.5,463.7,196L463.7,196z"/>
						<path class="st2" d="M454.5,223.6c-9.8,2.9-12.6,3.2-23.2,5.3c-0.3,0-0.3,0.6,0,0.6c10.7-0.5,14.6-0.9,23.4-5.4
							C455.3,223.7,455.2,223.4,454.5,223.6L454.5,223.6z"/>
					</g>
					<g>
						<path class="st3" d="M347.4,223.3c0,0,8.2-34.3,23.4-46.4c7.6-6.1,43.6-23.4,47.9-16.2c5.5,9.3-12.3,23.5-22,29.3
							c0,0,12.8,21.6,2.2,34.5C388.3,237.6,347.4,223.3,347.4,223.3z"/>
						<path class="st2" d="M419.4,163.8c-1.1,12.1-14.3,18.9-23.2,25.3c-0.7,0.5-0.5,1.2-0.1,1.6c4.8,9.4,8.7,24,3.5,33.8
							c-0.1,0.3,0.2,0.5,0.4,0.3c7.1-9.7,4.3-24.4-1.5-34.4c9.3-6.4,22.2-13.8,21-26.6C419.5,163.7,419.4,163.7,419.4,163.8
							L419.4,163.8z"/>
					</g>
				</g>
			</g>
		</g>
	</g>
</g>
</svg>
