<svg width="120" height="120" viewBox="0 0 120 120" fill="none" xmlns="http://www.w3.org/2000/svg">
<rect x="11.8357" y="8.16748" width="97.1643" height="97.1643" rx="6" fill="#0EA5E9" style="fill:#0EA5E9;fill:color(display-p3 0.0549 0.6471 0.9137);fill-opacity:1;"/>
<path d="M42.4858 57.5218C42.4731 57.6065 42.49 57.6929 42.5339 57.7664C42.5777 57.8399 42.6457 57.8959 42.7262 57.9249C43.1145 57.9841 43.5878 58.0469 44.113 58.1209C45.6772 54.7261 47.2748 52.0525 46.8236 53.1101C46.1345 54.7717 45.6826 56.522 45.4812 58.3095C46.0914 58.3909 47.5151 58.5647 48.2252 58.6497C49.8597 52.5924 51.6606 48.14 51.4498 49.5378C50.5919 55.1773 50.7435 57.0189 50.9395 58.9899C57.57 59.7961 66.2789 60.7502 72.5914 61.2938C73.6231 57.9656 74.5883 54.3267 74.6771 54.593C75.3686 56.5714 75.3538 59.3671 75.18 61.512C77.1917 61.671 78.804 61.7561 79.7914 61.7561C79.7914 61.7561 80.531 58.9382 80.6642 58.0063C81.0601 55.6218 81.0376 53.1866 80.5976 50.8099C80.1427 48.384 79.1738 46.2022 78.2678 43.9723C78.2651 43.9585 78.2614 43.9449 78.2567 43.9316C77.6558 42.4707 77.2241 40.9458 76.9698 39.3868C76.9673 39.3746 76.9673 39.362 76.9698 39.3498C76.8007 38.2128 76.7278 37.0636 76.7516 35.9143C76.833 31.706 74.947 27.9229 71.3636 26.5546C65.2434 20.3013 56.8378 23.171 54.4637 28.4591C53.5355 30.8295 52.6147 33.9248 51.8122 36.31C51.8145 36.3139 51.8157 36.3184 51.8157 36.323C51.8157 36.3275 51.8145 36.332 51.8122 36.3359C51.5094 37.2715 51.1501 38.1878 50.7361 39.0798C48.5358 43.3399 44.2979 45.5366 42.4858 57.5218Z" fill="#263238" style="fill:#263238;fill:color(display-p3 0.1490 0.1961 0.2196);fill-opacity:1;"/>
<path d="M72.8388 27.7962C75.1352 29.316 76.4443 31.3906 76.5368 34.4748C76.596 36.272 76.5368 38.0212 77.0434 39.7481C77.55 41.5306 78.4672 43.032 79.4175 44.5297C80.9226 46.9112 81.9137 49.2483 81.91 52.2659C81.9063 55.2835 81.4515 58.9224 80.2348 61.6922C80.2348 61.7107 80.2052 61.6922 80.2126 61.6922C81.2481 58.8632 81.6253 54.8767 81.4145 51.8222C81.1815 48.4644 79.6135 46.253 78.0382 43.6015C76.7689 41.4967 76.0668 39.0988 76.0006 36.6418C75.9562 35.1182 76.1189 33.5466 75.6751 32.0822C75.15 30.3367 73.8927 29.157 72.6354 28.1031C72.469 27.9515 72.665 27.6815 72.8388 27.7962Z" fill="#263238" style="fill:#263238;fill:color(display-p3 0.1490 0.1961 0.2196);fill-opacity:1;"/>
<path d="M46.2168 43.4908C48.1323 41.2387 50.0886 39.3416 51.3533 36.4646C52.5034 33.8427 53.2763 31.0433 54.4412 28.4288C54.4412 28.3844 54.5188 28.4066 54.5003 28.4547C52.6513 33.1142 51.9413 37.8994 48.7092 41.6973C46.949 43.7608 45.2072 45.6652 43.9425 48.1984C42.6492 50.8698 41.8404 53.7496 41.5536 56.7038C41.5536 56.8073 41.4167 56.7926 41.4167 56.7038C41.415 51.8724 43.1143 47.1945 46.2168 43.4908Z" fill="#263238" style="fill:#263238;fill:color(display-p3 0.1490 0.1961 0.2196);fill-opacity:1;"/>
<path d="M27.5939 100.88C27.5939 100.88 45.4443 105.688 48.3953 105.17C51.3463 104.652 61.3087 91.2431 63.5202 86.3802C65.7316 81.5173 69.4037 57.3249 68.6974 54.6623C67.9911 51.9998 64.2967 51.9628 61.1793 58.8263C58.0619 65.6898 50.6917 80.7777 49.379 82.0203C48.0662 83.2628 26.1554 99.5932 27.5939 100.88Z" fill="#F7A9A0" style="fill:#F7A9A0;fill:color(display-p3 0.9686 0.6627 0.6275);fill-opacity:1;"/>
<path d="M46.8456 103.579C44.1091 102.148 40.7772 98.6759 38.5066 98.3135C37.9512 98.2048 37.3755 98.2777 36.8647 98.5215C36.3539 98.7652 35.9351 99.1668 35.6702 99.667C35.6702 99.667 34.6274 97.3483 32.5121 97.3594C31.4286 97.3594 30.4819 99.1049 30.4819 99.1049C30.4819 99.1049 29.5611 97.2817 27.6862 97.4075C26.1885 97.5073 25.4674 99.238 25.4674 99.238C25.4674 99.238 23.7737 97.8993 22.2797 98.4984C19.2547 99.6929 18.7518 112.551 23.4113 114.725C25.582 115.739 25.534 112.592 25.534 112.592C25.534 112.592 26.6951 117.103 29.3429 117.273C31.9907 117.443 31.6838 113.361 31.6838 113.361C31.6838 113.361 32.8486 117.721 35.6111 117.621C38.4881 117.521 37.4823 113.486 37.4823 113.486C37.4823 113.486 39.3091 116.423 41.4059 115.861C44.8709 114.936 41.147 107.976 41.931 105.177H46.2835L46.8456 103.579Z" fill="#F7A9A0" style="fill:#F7A9A0;fill:color(display-p3 0.9686 0.6627 0.6275);fill-opacity:1;"/>
<path d="M42.8961 100.844C45.6068 101.975 48.6983 97.6966 51.4866 98.6913C55.1033 99.982 51.7603 104.445 46.2798 105.17H41.9272L42.8961 100.844Z" fill="#F7A9A0" style="fill:#F7A9A0;fill:color(display-p3 0.9686 0.6627 0.6275);fill-opacity:1;"/>
<path d="M25.3083 99.4932C25.3083 99.4844 25.3048 99.476 25.2986 99.4697C25.2923 99.4635 25.2839 99.46 25.2751 99.46C25.2662 99.46 25.2578 99.4635 25.2515 99.4697C25.2453 99.476 25.2418 99.4844 25.2418 99.4932C24.0473 103.683 24.014 108.653 25.5117 112.773C25.5598 112.906 25.8039 112.887 25.778 112.728C25.0458 108.172 24.7573 104.082 25.3083 99.4932Z" fill="#263238" style="fill:#263238;fill:color(display-p3 0.1490 0.1961 0.2196);fill-opacity:1;"/>
<path d="M30.456 99.0314C30.456 98.9796 30.3783 98.9685 30.3635 99.0314C29.1543 103.358 29.2541 108.953 31.558 113.502C31.6356 113.657 31.8649 113.716 31.7873 113.531C30.4966 110.395 29.9382 103.169 30.456 99.0314Z" fill="#263238" style="fill:#263238;fill:color(display-p3 0.1490 0.1961 0.2196);fill-opacity:1;"/>
<path d="M37.7484 113.757C35.7256 109.319 35.3299 104.671 35.611 99.8411C35.611 99.7782 35.5259 99.7782 35.5074 99.8411C34.7272 102.167 34.8714 105.262 35.1857 107.662C35.4316 109.89 36.2565 112.014 37.5783 113.823C37.6449 113.901 37.7928 113.853 37.7484 113.757Z" fill="#263238" style="fill:#263238;fill:color(display-p3 0.1490 0.1961 0.2196);fill-opacity:1;"/>
<path d="M51.7011 98.3511C49.926 97.7594 48.1029 99.1794 46.6089 99.9745C46.1307 100.259 45.6268 100.498 45.1038 100.688C43.9204 101.058 43.044 100.821 42.5152 100.492C41.6868 99.9634 39.1019 97.3822 37.2344 98.2401C36.5902 98.5416 36.0385 99.0102 35.6369 99.5973C35.0674 98.5618 34.3389 97.4339 33.0778 97.2269C32.8 97.1797 32.5153 97.1919 32.2425 97.2627C31.9697 97.3334 31.715 97.4611 31.4951 97.6373C31.2601 97.8187 31.051 98.0315 30.8738 98.2697C30.6982 98.4837 30.5538 98.7215 30.4449 98.976C30.4444 98.9674 30.4444 98.9588 30.4449 98.9501L30.4042 98.8725L30.3265 98.7135C30.221 98.5004 30.0709 98.3125 29.8865 98.1625C29.8513 98.1266 29.8093 98.0983 29.7629 98.0792C29.7165 98.0602 29.6667 98.0507 29.6165 98.0515C29.6087 98.0515 29.6011 98.0546 29.5956 98.0602C29.59 98.0657 29.5869 98.0733 29.5869 98.0811C29.5869 98.0889 29.59 98.0965 29.5956 98.102C29.6011 98.1076 29.6087 98.1107 29.6165 98.1107C29.7031 98.1519 29.7734 98.2209 29.8162 98.3067C29.8754 98.3954 29.9308 98.4879 29.9937 98.5729C30.0566 98.658 30.1157 98.7467 30.1786 98.8318L30.271 98.9686L30.3117 99.0389C30.3295 99.0616 30.3493 99.0826 30.3709 99.1018C30.3761 99.1086 30.3828 99.1142 30.3905 99.1181C30.3982 99.1219 30.4067 99.1239 30.4153 99.1239C30.4239 99.1239 30.4324 99.1219 30.4401 99.1181C30.4478 99.1142 30.4545 99.1086 30.4596 99.1018C30.6499 98.9326 30.8221 98.7442 30.9737 98.5397C31.16 98.323 31.3668 98.1249 31.5912 97.948C31.8044 97.7831 32.0499 97.6649 32.3118 97.6012C32.5737 97.5375 32.846 97.5296 33.1111 97.5782C34.2427 97.8001 34.9601 98.8059 35.5629 99.7045C35.5629 99.7045 35.5629 99.7045 35.5814 99.7045C35.5629 99.7341 35.6036 99.76 35.6258 99.7378C36.247 99.1942 36.8387 98.584 37.6967 98.4583C38.6212 98.3215 39.4976 98.7652 40.2631 99.2312C40.6465 99.4567 41.0169 99.7036 41.3725 99.9708C41.6868 100.215 41.9864 100.489 42.3229 100.71C43.7614 101.616 45.3368 100.914 45.7288 100.747C46.5018 100.399 47.2516 100.001 47.9734 99.5566C48.699 99.0701 49.5174 98.7389 50.3772 98.584C50.7719 98.5259 51.1749 98.5687 51.5487 98.7083C51.9224 98.848 52.2548 99.08 52.5146 99.3828C52.7846 99.7304 53.1285 100.381 52.4222 101.864C52.4222 101.864 52.4222 101.894 52.4444 101.883C52.8142 101.498 53.9901 99.1165 51.7011 98.3511Z" fill="#263238" style="fill:#263238;fill:color(display-p3 0.1490 0.1961 0.2196);fill-opacity:1;"/>
<path d="M67.2956 77.1315L50.4512 74.4393C50.4512 74.4393 58.4981 58.5045 63.3314 53.882C68.1018 49.3187 70.4242 53.993 69.7215 61.0414C68.945 68.8553 67.2956 77.1315 67.2956 77.1315Z" fill="#3F3F3F" style="fill:#3F3F3F;fill:color(display-p3 0.2481 0.2481 0.2481);fill-opacity:1;"/>
<path d="M66.7481 73.9962C66.2747 73.8853 65.7903 73.815 65.317 73.7078C64.8436 73.6006 64.3887 73.534 63.9228 73.4637C62.9724 73.3158 62.0183 73.1827 61.0679 73.0533C59.1893 72.7944 57.3107 72.5096 55.4248 72.3136C54.3523 72.1953 53.2873 72.0326 52.2112 71.9438C52.1779 71.9438 52.1742 71.9956 52.2112 72.003C54.0787 72.4394 55.9795 72.7426 57.8728 73.0717C59.7662 73.4009 61.63 73.6671 63.516 73.8705C64.0448 73.9297 64.5773 73.9962 65.1062 74.0221C65.635 74.048 66.1971 74.0998 66.7407 74.1072C66.7554 74.1082 66.7699 74.1033 66.781 74.0936C66.7921 74.0838 66.7989 74.0701 66.7998 74.0554C66.8008 74.0407 66.7959 74.0262 66.7862 74.0151C66.7765 74.004 66.7628 73.9972 66.7481 73.9962Z" fill="#263238" style="fill:#263238;fill:color(display-p3 0.1490 0.1961 0.2196);fill-opacity:1;"/>
<path d="M57.9174 105.317H102.527C102.527 105.317 83.9847 59.2993 74.5585 52.5763C71.7295 50.5572 67.2216 50.3316 64.1818 54.3847C61.6894 57.7129 54.7704 70.9333 54.4561 75.6889C54.1417 80.4446 57.873 85.1448 57.873 85.1448L57.9174 105.317Z" fill="#FACC15" style="fill:#FACC15;fill:color(display-p3 0.9804 0.8000 0.0824);fill-opacity:1;"/>
<path d="M72.6875 74.1363C72.8021 74.1068 72.9131 74.092 73.024 74.0698C73.1218 74.0476 73.2234 74.0477 73.3212 74.0701C73.419 74.0924 73.5105 74.1365 73.5889 74.199C73.6674 74.2615 73.7308 74.3408 73.7745 74.4311C73.8182 74.5214 73.841 74.6203 73.8413 74.7206C73.8385 74.8099 73.8588 74.8983 73.9003 74.9773C73.9417 75.0564 74.003 75.1234 74.078 75.1718C74.1619 75.2245 74.2567 75.2574 74.3553 75.2679C74.4685 75.2844 74.5808 75.3066 74.6918 75.3345C74.5809 75.3641 74.4699 75.3789 74.3553 75.4011C74.2314 75.4257 74.103 75.4141 73.9855 75.3678C73.8604 75.3144 73.7539 75.2251 73.6795 75.1113C73.6052 74.9974 73.5662 74.864 73.5676 74.728C73.5655 74.6391 73.541 74.5522 73.4964 74.4753C73.4518 74.3984 73.3886 74.3339 73.3125 74.288C73.2245 74.24 73.1275 74.2111 73.0277 74.2029C72.9131 74.1807 72.8021 74.1659 72.6875 74.1363Z" fill="white" style="fill:white;fill-opacity:1;"/>
<path d="M55.6245 74.1363C55.7355 74.1068 55.8464 74.092 55.9573 74.0698C56.0552 74.0476 56.1567 74.0477 56.2545 74.0701C56.3523 74.0924 56.4438 74.1365 56.5222 74.199C56.6007 74.2615 56.6641 74.3408 56.7078 74.4311C56.7515 74.5214 56.7743 74.6203 56.7746 74.7206C56.7726 74.8101 56.7936 74.8987 56.8357 74.9777C56.8778 75.0567 56.9395 75.1236 57.015 75.1718C57.0983 75.2257 57.1935 75.2586 57.2923 75.2679C57.4033 75.2901 57.5142 75.3012 57.6251 75.3345C57.5142 75.3641 57.4033 75.3789 57.2923 75.4011C57.1684 75.4251 57.0402 75.4135 56.9225 75.3678C56.7983 75.3132 56.6926 75.2237 56.6184 75.1101C56.5442 74.9965 56.5047 74.8637 56.5046 74.728C56.5025 74.6391 56.4781 74.5522 56.4335 74.4753C56.3889 74.3984 56.3256 74.3339 56.2495 74.288C56.1618 74.2395 56.0646 74.2105 55.9647 74.2029C55.8464 74.1807 55.7355 74.1659 55.6245 74.1363Z" fill="white" style="fill:white;fill-opacity:1;"/>
<path d="M78.885 96.3026C78.996 96.273 79.1106 96.2582 79.2215 96.236C79.3193 96.2151 79.4206 96.2163 79.5178 96.2395C79.6151 96.2626 79.706 96.3071 79.784 96.3698C79.8619 96.4325 79.9248 96.5118 79.9683 96.6019C80.0117 96.6919 80.0345 96.7906 80.0351 96.8906C80.0341 96.9799 80.0556 97.068 80.0976 97.1469C80.1396 97.2257 80.2008 97.2927 80.2755 97.3417C80.3596 97.3933 80.4545 97.4249 80.5528 97.4342C80.6637 97.4564 80.7784 97.4712 80.8893 97.5007C80.7784 97.534 80.6637 97.5488 80.5528 97.571C80.4285 97.5942 80.3002 97.5814 80.183 97.534C80.0578 97.4804 79.9511 97.3912 79.8761 97.2775C79.8012 97.1637 79.7613 97.0305 79.7614 96.8943C79.7608 96.8056 79.7369 96.7186 79.6922 96.642C79.6474 96.5654 79.5833 96.5019 79.5063 96.4579C79.4206 96.4078 79.3243 96.3786 79.2252 96.3729C79.1106 96.3507 78.996 96.3359 78.885 96.3026Z" fill="white" style="fill:white;fill-opacity:1;"/>
<path d="M86.5994 75.3342C86.7103 75.3009 86.8249 75.2898 86.9359 75.2676C87.0335 75.2454 87.1349 75.2454 87.2325 75.2678C87.3301 75.2902 87.4214 75.3343 87.4996 75.3968C87.5778 75.4594 87.6409 75.5388 87.6842 75.6291C87.7274 75.7194 87.7497 75.8183 87.7495 75.9185C87.7481 76.0079 87.7695 76.0961 87.8115 76.175C87.8535 76.2539 87.9149 76.3209 87.9898 76.3696C88.073 76.4233 88.1684 76.4551 88.2672 76.4621C88.3781 76.488 88.4928 76.4991 88.6037 76.5323C88.4928 76.5619 88.3781 76.5767 88.2672 76.5989C88.1433 76.6237 88.0148 76.6122 87.8974 76.5656C87.7722 76.512 87.6654 76.4228 87.5905 76.3091C87.5156 76.1953 87.4757 76.0621 87.4758 75.9259C87.4751 75.8367 87.4512 75.7492 87.4065 75.6721C87.3617 75.5949 87.2977 75.5307 87.2206 75.4858C87.1343 75.4373 87.0383 75.4083 86.9396 75.4008C86.8249 75.3638 86.7103 75.3638 86.5994 75.3342Z" fill="white" style="fill:white;fill-opacity:1;"/>
<path d="M66.8779 64.0588C66.9926 64.0293 67.1035 64.0145 67.2145 63.9923C67.3377 63.9653 67.466 63.9743 67.5843 64.0182C67.7126 64.0661 67.8234 64.1518 67.902 64.2641C67.9806 64.3763 68.0232 64.5098 68.0243 64.6468C68.024 64.736 68.0458 64.8239 68.0877 64.9027C68.1297 64.9814 68.1905 65.0485 68.2647 65.098C68.3496 65.1479 68.4441 65.1794 68.542 65.1904C68.6567 65.2126 68.7676 65.2274 68.8786 65.257C68.7676 65.2903 68.6567 65.3014 68.542 65.3273C68.4177 65.3487 68.2899 65.3359 68.1722 65.2903C68.0454 65.2362 67.9377 65.1452 67.8631 65.0292C67.7886 64.9131 67.7507 64.7773 67.7544 64.6394C67.7527 64.551 67.7283 64.4644 67.6837 64.388C67.639 64.3116 67.5755 64.2479 67.4992 64.2031C67.4123 64.1522 67.3149 64.1219 67.2145 64.1143C67.1035 64.1032 66.9926 64.0921 66.8779 64.0588Z" fill="white" style="fill:white;fill-opacity:1;"/>
<path d="M79.0183 63.8037C79.1293 63.7742 79.2402 63.7594 79.3548 63.7372C79.4781 63.7112 79.6062 63.7202 79.7246 63.7631C79.8528 63.8117 79.9636 63.8975 80.0427 64.0095C80.1217 64.1215 80.1655 64.2546 80.1684 64.3917C80.1667 64.4812 80.1879 64.5696 80.23 64.6485C80.272 64.7275 80.3336 64.7944 80.4088 64.8429C80.4927 64.8949 80.5877 64.9266 80.6861 64.9353C80.7971 64.9575 80.908 64.9723 81.0226 65.0019C80.908 65.0352 80.7971 65.05 80.6861 65.0722C80.5619 65.0956 80.4335 65.0828 80.3163 65.0352C80.1911 64.9816 80.0844 64.8924 80.0094 64.7786C79.9345 64.6649 79.8946 64.5316 79.8947 64.3954C79.8934 64.3069 79.8692 64.2202 79.8245 64.1437C79.7798 64.0673 79.7161 64.0037 79.6396 63.9591C79.5539 63.9089 79.4576 63.8798 79.3585 63.874C79.244 63.8564 79.1304 63.833 79.0183 63.8037Z" fill="white" style="fill:white;fill-opacity:1;"/>
<path d="M71.1599 52.1516C71.2709 52.122 71.3855 52.1072 71.4964 52.085C71.5941 52.0628 71.6955 52.0628 71.7931 52.0852C71.8907 52.1076 71.982 52.1517 72.0602 52.2142C72.1384 52.2768 72.2014 52.3562 72.2447 52.4465C72.288 52.5368 72.3103 52.6357 72.31 52.7359C72.308 52.8254 72.329 52.9139 72.3711 52.9929C72.4132 53.0719 72.4749 53.1388 72.5504 53.187C72.634 53.2404 72.729 53.2733 72.8277 53.2832C72.9387 53.3053 73.0533 53.3164 73.1642 53.3497C73.0533 53.3793 72.9387 53.3941 72.8277 53.4163C72.7038 53.4411 72.5754 53.4296 72.4579 53.383C72.3327 53.3294 72.226 53.2402 72.151 53.1264C72.0761 53.0127 72.0362 52.8795 72.0363 52.7433C72.0356 52.6541 72.0118 52.5666 71.967 52.4894C71.9223 52.4123 71.8582 52.3481 71.7812 52.3032C71.6948 52.2547 71.5989 52.2257 71.5001 52.2181C71.3855 52.1959 71.2709 52.1811 71.1599 52.1516Z" fill="white" style="fill:white;fill-opacity:1;"/>
<path d="M63.9006 83.4106C64.0116 83.381 64.1225 83.3662 64.2335 83.344C64.3566 83.3168 64.4851 83.3258 64.6033 83.3699C64.7317 83.417 64.8429 83.5019 64.9221 83.6135C65.0014 83.7251 65.0449 83.858 65.047 83.9948C65.045 84.0844 65.066 84.1729 65.1081 84.2519C65.1502 84.3309 65.212 84.3978 65.2874 84.446C65.3708 84.4999 65.4659 84.5329 65.5647 84.5422C65.6757 84.5643 65.7866 84.5791 65.8976 84.6087C65.7866 84.642 65.6757 84.6531 65.5647 84.6753C65.4408 84.6993 65.3126 84.6877 65.1949 84.642C65.0707 84.5874 64.965 84.4979 64.8908 84.3843C64.8166 84.2707 64.7771 84.1379 64.7771 84.0022C64.775 83.9134 64.7505 83.8264 64.7059 83.7495C64.6613 83.6726 64.598 83.6082 64.5219 83.5622C64.434 83.5143 64.337 83.4853 64.2372 83.4771C64.1225 83.4549 64.0116 83.4438 63.9006 83.4106Z" fill="white" style="fill:white;fill-opacity:1;"/>
<path d="M77.1472 103.724C77.2582 103.691 77.3728 103.676 77.4837 103.654C77.5815 103.633 77.6828 103.634 77.78 103.657C77.8773 103.681 77.9683 103.725 78.0462 103.788C78.1241 103.85 78.1871 103.93 78.2305 104.02C78.2739 104.11 78.2968 104.209 78.2973 104.309C78.2963 104.398 78.3178 104.486 78.3598 104.565C78.4018 104.644 78.463 104.711 78.5377 104.76C78.6211 104.813 78.7164 104.845 78.815 104.852C78.926 104.874 79.0406 104.889 79.1515 104.919C79.0406 104.952 78.926 104.967 78.815 104.989C78.6908 105.012 78.5624 104.999 78.4452 104.952C78.3197 104.899 78.2127 104.81 78.1377 104.696C78.0627 104.582 78.023 104.449 78.0236 104.312C78.023 104.224 77.9992 104.137 77.9544 104.06C77.9096 103.983 77.8455 103.92 77.7685 103.876C77.6828 103.826 77.5865 103.797 77.4874 103.791C77.3617 103.769 77.2471 103.754 77.1472 103.724Z" fill="white" style="fill:white;fill-opacity:1;"/>
<path d="M70.6204 92.8077C70.7313 92.7782 70.8422 92.7634 70.9532 92.7412C71.0765 92.7158 71.2044 92.7247 71.323 92.7671C71.4518 92.8148 71.5631 92.9004 71.6423 93.0126C71.7215 93.1248 71.7649 93.2584 71.7667 93.3957C71.7651 93.4852 71.7863 93.5736 71.8283 93.6525C71.8704 93.7315 71.9319 93.7984 72.0071 93.8469C72.0908 93.8996 72.1859 93.9313 72.2845 93.9393C72.3954 93.9615 72.5064 93.9763 72.621 94.0059C72.5064 94.0392 72.3954 94.0503 72.2845 94.0762C72.1601 94.0971 72.0324 94.0843 71.9147 94.0392C71.7904 93.9846 71.6848 93.8951 71.6106 93.7815C71.5364 93.6679 71.4968 93.5351 71.4968 93.3994C71.4944 93.3111 71.4698 93.2248 71.4252 93.1485C71.3806 93.0722 71.3174 93.0084 71.2416 92.9631C71.1556 92.9108 71.0575 92.8815 70.9569 92.878C70.8607 92.8521 70.7313 92.841 70.6204 92.8077Z" fill="white" style="fill:white;fill-opacity:1;"/>
<path d="M58.5608 94.7936C58.6754 94.7603 58.7864 94.7455 58.8973 94.7233C58.9951 94.7024 59.0963 94.7036 59.1936 94.7268C59.2909 94.7499 59.3818 94.7945 59.4597 94.8571C59.5377 94.9198 59.6006 94.9991 59.6441 95.0892C59.6875 95.1792 59.7103 95.2779 59.7109 95.3779C59.7099 95.4672 59.7314 95.5554 59.7734 95.6342C59.8154 95.713 59.8766 95.78 59.9512 95.829C60.0347 95.8821 60.13 95.9139 60.2286 95.9215C60.3432 95.9437 60.4542 95.9585 60.5651 95.988C60.4542 96.0171 60.3419 96.0406 60.2286 96.0583C60.1043 96.0815 59.976 96.0687 59.8588 96.0213C59.7333 95.9681 59.6263 95.879 59.5513 95.7652C59.4763 95.6513 59.4366 95.5179 59.4372 95.3816C59.4366 95.2933 59.4131 95.2067 59.3691 95.1302C59.325 95.0537 59.2618 94.99 59.1858 94.9452C59.0985 94.8956 59.0011 94.8666 58.901 94.8602C58.7864 94.838 58.6754 94.8232 58.5608 94.7936Z" fill="white" style="fill:white;fill-opacity:1;"/>
<path d="M76.1707 83.6775C76.2816 83.6479 76.3925 83.6331 76.5035 83.611C76.6015 83.5901 76.7029 83.5914 76.8003 83.6145C76.8978 83.6376 76.9889 83.6821 77.0671 83.7447C77.1453 83.8073 77.2086 83.8865 77.2525 83.9766C77.2963 84.0667 77.3196 84.1653 77.3207 84.2655C77.3191 84.355 77.3403 84.4433 77.3823 84.5223C77.4244 84.6013 77.4859 84.6682 77.5611 84.7167C77.6448 84.7694 77.7399 84.8011 77.8385 84.8091C77.9494 84.8313 78.0603 84.8461 78.1713 84.8757C78.0603 84.909 77.9494 84.9201 77.8385 84.9459C77.7142 84.9686 77.586 84.9557 77.4687 84.909C77.3444 84.8544 77.2388 84.7648 77.1646 84.6512C77.0903 84.5376 77.0508 84.4049 77.0508 84.2692C77.0484 84.1809 77.0238 84.0946 76.9792 84.0183C76.9346 83.942 76.8714 83.8782 76.7956 83.8328C76.7091 83.7816 76.6113 83.7524 76.5109 83.7478C76.4073 83.7219 76.2816 83.7108 76.1707 83.6775Z" fill="white" style="fill:white;fill-opacity:1;"/>
<path d="M91.5876 98.6204C91.6986 98.5908 91.8132 98.576 91.9242 98.5538C92.0474 98.5268 92.1757 98.5358 92.294 98.5797C92.4223 98.6276 92.5331 98.7134 92.6117 98.8256C92.6903 98.9379 92.733 99.0713 92.734 99.2084C92.7337 99.2976 92.7555 99.3855 92.7974 99.4642C92.8394 99.5429 92.9002 99.61 92.9744 99.6595C93.0593 99.7094 93.1538 99.7409 93.2518 99.752C93.3664 99.7742 93.4773 99.7889 93.5883 99.8185C93.4773 99.8518 93.3664 99.8629 93.2518 99.8888C93.1534 99.907 93.0523 99.903 92.9557 99.8771C92.8591 99.8513 92.7695 99.8043 92.6933 99.7395C92.6172 99.6747 92.5564 99.5937 92.5155 99.5025C92.4746 99.4112 92.4545 99.312 92.4567 99.2121C92.4561 99.1233 92.4322 99.0364 92.3874 98.9598C92.3426 98.8832 92.2785 98.8197 92.2015 98.7757C92.1162 98.7243 92.0199 98.6938 91.9205 98.6869C91.8132 98.6611 91.6986 98.6611 91.5876 98.6204Z" fill="white" style="fill:white;fill-opacity:1;"/>
<path d="M85.4675 89.4979C85.5785 89.4683 85.6931 89.4535 85.8041 89.4313C85.9019 89.4105 86.0031 89.4116 86.1004 89.4348C86.1977 89.4579 86.2886 89.5025 86.3665 89.5652C86.4444 89.6278 86.5074 89.7071 86.5508 89.7972C86.5942 89.8873 86.6171 89.9859 86.6176 90.0859C86.6159 90.1753 86.6371 90.2637 86.6792 90.3427C86.7213 90.4216 86.7828 90.4885 86.858 90.537C86.9412 90.5907 87.0366 90.6225 87.1353 90.6295C87.2463 90.6517 87.3609 90.6665 87.4719 90.6961C87.3609 90.7293 87.2463 90.7441 87.1353 90.7663C87.0111 90.7898 86.8827 90.7769 86.7655 90.7293C86.64 90.6761 86.5331 90.587 86.4581 90.4732C86.383 90.3594 86.3433 90.2259 86.344 90.0896C86.3434 90.0009 86.3195 89.9139 86.2747 89.8373C86.2299 89.7607 86.1658 89.6973 86.0888 89.6532C86.0031 89.6031 85.9068 89.5739 85.8078 89.5682C85.6931 89.546 85.5785 89.5312 85.4675 89.4979Z" fill="white" style="fill:white;fill-opacity:1;"/>
<path d="M98.4773 102.792C98.5919 102.762 98.7029 102.747 98.8138 102.725C98.9116 102.704 99.0128 102.706 99.1101 102.729C99.2074 102.752 99.2983 102.796 99.3762 102.859C99.4542 102.922 99.5171 103.001 99.5606 103.091C99.604 103.181 99.6268 103.28 99.6274 103.38C99.6264 103.469 99.6479 103.557 99.6899 103.636C99.7319 103.715 99.7931 103.782 99.8678 103.831C99.9512 103.884 100.046 103.916 100.145 103.923C100.26 103.946 100.371 103.96 100.482 103.99C100.371 104.019 100.258 104.043 100.145 104.06C100.021 104.084 99.8925 104.071 99.7753 104.023C99.6499 103.97 99.5432 103.881 99.4687 103.767C99.3943 103.653 99.3555 103.52 99.3574 103.384C99.355 103.295 99.3304 103.209 99.2858 103.133C99.2412 103.056 99.1781 102.993 99.1023 102.947C99.015 102.898 98.9177 102.869 98.8175 102.862C98.7029 102.84 98.5956 102.825 98.4773 102.792Z" fill="white" style="fill:white;fill-opacity:1;"/>
<path d="M67.9021 70.3568C67.8466 70.4567 67.7764 70.5454 67.7135 70.6416C67.6598 70.7264 67.5877 70.798 67.5025 70.8512C67.4173 70.9043 67.3213 70.9377 67.2215 70.9487C67.1217 70.9597 67.0207 70.9481 66.926 70.9148C66.8313 70.8815 66.7453 70.8273 66.6744 70.7562C66.6127 70.6915 66.5353 70.6439 66.4498 70.618C66.3642 70.5921 66.2734 70.5887 66.1862 70.6083C66.0896 70.6299 65.9996 70.6743 65.9237 70.7377C65.8322 70.8057 65.7372 70.8686 65.6389 70.9263C65.6981 70.8265 65.7647 70.7377 65.8275 70.6416C65.9001 70.5353 66.0014 70.4519 66.1197 70.4012C66.2446 70.3521 66.3813 70.3406 66.5127 70.3682C66.6441 70.3958 66.7646 70.4613 66.8593 70.5565C66.9234 70.6183 67.0022 70.6626 67.0883 70.6853C67.1744 70.7079 67.2649 70.7082 67.3511 70.686C67.4471 70.6598 67.5357 70.6117 67.61 70.5454C67.7283 70.4826 67.817 70.4123 67.9021 70.3568Z" fill="white" style="fill:white;fill-opacity:1;"/>
<path d="M63.4385 62.8681C63.383 62.9679 63.3128 63.0567 63.2499 63.1528C63.1962 63.2376 63.124 63.3093 63.0389 63.3624C62.9537 63.4156 62.8577 63.4489 62.7579 63.4599C62.6581 63.4709 62.5571 63.4593 62.4624 63.426C62.3677 63.3927 62.2817 63.3385 62.2107 63.2675C62.1493 63.2025 62.0719 63.1546 61.9863 63.1287C61.9007 63.1027 61.8098 63.0996 61.7226 63.1195C61.626 63.1412 61.536 63.1855 61.46 63.249C61.3686 63.3169 61.2735 63.3799 61.1753 63.4376C61.2345 63.3377 61.301 63.249 61.3639 63.1528C61.4364 63.0466 61.5378 62.9632 61.656 62.9124C61.781 62.8633 61.9177 62.8518 62.0491 62.8794C62.1805 62.907 62.301 62.9725 62.3956 63.0678C62.4595 63.1298 62.5384 63.1744 62.6246 63.197C62.7107 63.2197 62.8013 63.2198 62.8875 63.1972C62.9835 63.171 63.0721 63.1229 63.1463 63.0567C63.2499 62.9938 63.3386 62.9235 63.4385 62.8681Z" fill="white" style="fill:white;fill-opacity:1;"/>
<path d="M86.0226 83.3931C85.9634 83.4966 85.8968 83.5854 85.834 83.6778C85.7637 83.7851 85.6652 83.8708 85.5492 83.9256C85.4266 83.979 85.2909 83.9948 85.1592 83.9711C85.0276 83.9474 84.9059 83.8853 84.8096 83.7925C84.7473 83.7286 84.6699 83.6816 84.5846 83.6558C84.4992 83.6299 84.4087 83.626 84.3215 83.6445C84.2249 83.6663 84.135 83.7106 84.0589 83.774C83.9628 83.8368 83.874 83.9071 83.7742 83.9626C83.8296 83.8627 83.8999 83.774 83.9628 83.6778C84.0339 83.5717 84.134 83.4882 84.2512 83.4374C84.3764 83.3897 84.5127 83.379 84.6438 83.4065C84.7749 83.4341 84.8954 83.4987 84.9908 83.5928C85.054 83.6548 85.1322 83.6994 85.2177 83.7221C85.3033 83.7448 85.3933 83.7448 85.479 83.7222C85.5756 83.6969 85.6654 83.6501 85.7415 83.5854C85.8451 83.5225 85.9338 83.4522 86.0226 83.3931Z" fill="white" style="fill:white;fill-opacity:1;"/>
<path d="M74.7288 59.122C74.6733 59.2218 74.603 59.3106 74.5402 59.4067C74.471 59.5126 74.3737 59.5971 74.2591 59.6508C74.1342 59.7072 73.9954 59.725 73.8603 59.7019C73.7252 59.6789 73.6001 59.616 73.501 59.5214C73.4391 59.4569 73.3619 59.4092 73.2765 59.3827C73.1911 59.3561 73.1004 59.3517 73.0129 59.3697C72.9166 59.3921 72.8267 59.4364 72.7503 59.4992C72.6542 59.562 72.5654 59.6323 72.4656 59.6915C72.521 59.5879 72.5913 59.4992 72.6542 59.403C72.7258 59.2968 72.8276 59.2144 72.9463 59.1664C73.0713 59.1172 73.2079 59.1057 73.3394 59.1333C73.4708 59.1609 73.5913 59.2264 73.6859 59.3217C73.7506 59.3863 73.8309 59.4332 73.919 59.4578C74.0071 59.4824 74.1 59.4839 74.1889 59.4622C74.2842 59.4345 74.3725 59.3866 74.4477 59.3217C74.5587 59.2477 74.6289 59.1774 74.7288 59.122Z" fill="white" style="fill:white;fill-opacity:1;"/>
<path d="M66.8962 53.5902C66.8408 53.6901 66.7705 53.7788 66.7076 53.875C66.6378 53.9812 66.5408 54.0668 66.4266 54.1228C66.3014 54.1787 66.1623 54.1959 66.0272 54.1722C65.8921 54.1484 65.7672 54.0849 65.6685 53.9896C65.6068 53.9249 65.5295 53.8773 65.4439 53.8514C65.3584 53.8255 65.2676 53.8221 65.1804 53.8417C65.0835 53.8626 64.9934 53.9071 64.9178 53.9711C64.8217 54.034 64.7329 54.1043 64.6331 54.1597C64.6885 54.0599 64.7588 53.9711 64.8217 53.875C64.8933 53.7679 64.9949 53.6842 65.1138 53.6346C65.2388 53.5855 65.3754 53.574 65.5068 53.6016C65.6383 53.6292 65.7587 53.6947 65.8534 53.7899C65.9171 53.8523 65.996 53.897 66.0822 53.9197C66.1684 53.9424 66.2591 53.9423 66.3452 53.9194C66.4412 53.8932 66.5298 53.8451 66.6041 53.7788C66.7076 53.716 66.7927 53.6457 66.8962 53.5902Z" fill="white" style="fill:white;fill-opacity:1;"/>
<path d="M74.2885 66.1636C74.3218 66.2745 74.3329 66.3892 74.3588 66.5001C74.3817 66.6236 74.3728 66.7508 74.3329 66.8699C74.2841 66.9977 74.1982 67.1079 74.0861 67.1864C73.974 67.2648 73.841 67.3079 73.7042 67.31C73.6149 67.3086 73.5266 67.33 73.4477 67.372C73.3688 67.414 73.3018 67.4754 73.2531 67.5503C73.1994 67.6335 73.1676 67.7289 73.1606 67.8277C73.1348 67.9386 73.1237 68.0533 73.0904 68.1642C73.0608 68.0533 73.046 67.9386 73.0238 67.8277C72.9986 67.7035 73.0115 67.5746 73.0608 67.4579C73.1136 67.3321 73.2026 67.2248 73.3165 67.1498C73.4305 67.0747 73.5641 67.0352 73.7005 67.0363C73.7892 67.0353 73.876 67.0113 73.9525 66.9665C74.0291 66.9218 74.0926 66.8579 74.1369 66.7811C74.1854 66.6948 74.2144 66.5989 74.222 66.5001C74.2442 66.3892 74.2589 66.2745 74.2885 66.1636Z" fill="white" style="fill:white;fill-opacity:1;"/>
<path d="M71.6224 85.8623C71.6519 85.9732 71.6667 86.0879 71.6889 86.1988C71.7098 86.2966 71.7086 86.3978 71.6855 86.4951C71.6623 86.5924 71.6178 86.6833 71.5551 86.7612C71.4924 86.8392 71.4132 86.9021 71.3231 86.9456C71.233 86.989 71.1344 87.0118 71.0344 87.0124C70.9449 87.0107 70.8565 87.0319 70.7776 87.074C70.6986 87.116 70.6317 87.1776 70.5832 87.2528C70.5312 87.3367 70.4995 87.4317 70.4908 87.5301C70.4686 87.641 70.4538 87.7557 70.4242 87.8666C70.3909 87.7557 70.3761 87.641 70.3539 87.5301C70.3305 87.4058 70.3433 87.2775 70.3909 87.1603C70.4445 87.0351 70.5338 86.9284 70.6475 86.8534C70.7612 86.7785 70.8945 86.7386 71.0307 86.7387C71.1194 86.7381 71.2064 86.7142 71.283 86.6695C71.3595 86.6247 71.423 86.5606 71.4671 86.4836C71.5172 86.3979 71.5463 86.3016 71.5521 86.2025C71.5743 86.0879 71.6002 85.9732 71.6224 85.8623Z" fill="white" style="fill:white;fill-opacity:1;"/>
<path d="M97.4861 94.9893C97.5193 95.1002 97.5341 95.2111 97.5563 95.3221C97.5771 95.4201 97.5759 95.5215 97.5528 95.6189C97.5297 95.7164 97.4852 95.8075 97.4226 95.8857C97.3599 95.9639 97.2807 96.0272 97.1907 96.071C97.1006 96.1149 97.0019 96.1382 96.9018 96.1393C96.8123 96.1377 96.7239 96.1589 96.645 96.2009C96.566 96.243 96.4991 96.3045 96.4506 96.3797C96.3963 96.4626 96.3645 96.5582 96.3582 96.6571C96.336 96.768 96.3212 96.8789 96.2916 96.9899C96.2583 96.8789 96.2435 96.768 96.2213 96.6571C96.1987 96.5328 96.2115 96.4046 96.2583 96.2873C96.3125 96.1627 96.4019 96.0568 96.5156 95.9825C96.6293 95.9083 96.7623 95.8689 96.8981 95.8694C96.9864 95.867 97.0727 95.8424 97.149 95.7978C97.2253 95.7532 97.289 95.69 97.3344 95.6142C97.384 95.527 97.4131 95.4296 97.4195 95.3295C97.4454 95.2111 97.4602 95.1002 97.4861 94.9893Z" fill="white" style="fill:white;fill-opacity:1;"/>
<path d="M85.5045 68.8926C85.534 69.0035 85.5488 69.1145 85.571 69.2291C85.597 69.3524 85.588 69.4804 85.5451 69.5989C85.4965 69.7271 85.4107 69.8378 85.2987 69.9169C85.1866 69.996 85.0536 70.0398 84.9165 70.0427C84.827 70.041 84.7386 70.0622 84.6597 70.1042C84.5807 70.1463 84.5138 70.2079 84.4653 70.283C84.4133 70.367 84.3816 70.462 84.3729 70.5604C84.3507 70.6713 84.3359 70.7823 84.3063 70.8969C84.273 70.7823 84.2619 70.6713 84.236 70.5604C84.2179 70.4621 84.2219 70.3609 84.2477 70.2643C84.2735 70.1677 84.3206 70.0781 84.3854 70.0019C84.4502 69.9258 84.5311 69.8651 84.6224 69.8241C84.7136 69.7832 84.8128 69.7631 84.9128 69.7653C85.0013 69.764 85.088 69.7398 85.1645 69.6951C85.2409 69.6504 85.3045 69.5867 85.3491 69.5102C85.4008 69.4252 85.4301 69.3285 85.4342 69.2291C85.4601 69.1145 85.4712 69.0035 85.5045 68.8926Z" fill="white" style="fill:white;fill-opacity:1;"/>
<path d="M85.5048 100.511C85.5343 100.622 85.5491 100.733 85.5713 100.844C85.5921 100.942 85.5909 101.043 85.5678 101.14C85.5447 101.238 85.5002 101.329 85.4376 101.407C85.3749 101.485 85.2957 101.549 85.2057 101.593C85.1156 101.636 85.0169 101.66 84.9168 101.661C84.8273 101.659 84.7389 101.68 84.66 101.722C84.581 101.764 84.5141 101.826 84.4656 101.901C84.4129 101.985 84.3812 102.08 84.3732 102.179C84.351 102.289 84.3362 102.4 84.3066 102.511C84.2733 102.4 84.2622 102.289 84.2363 102.179C84.2154 102.054 84.2282 101.927 84.2733 101.809C84.3279 101.685 84.4174 101.579 84.531 101.505C84.6446 101.43 84.7774 101.391 84.9131 101.391C85.0014 101.388 85.0877 101.364 85.164 101.319C85.2403 101.275 85.304 101.212 85.3494 101.136C85.4017 101.05 85.431 100.952 85.4345 100.851C85.4604 100.744 85.4715 100.633 85.5048 100.511Z" fill="white" style="fill:white;fill-opacity:1;"/>
<path d="M91.5878 82.4087C91.6211 82.5196 91.6322 82.6343 91.6544 82.7452C91.6767 82.8428 91.6766 82.9443 91.6542 83.0419C91.6319 83.1395 91.5878 83.2308 91.5252 83.309C91.4626 83.3872 91.3832 83.4502 91.2929 83.4935C91.2026 83.5367 91.1037 83.5591 91.0036 83.5588C90.9142 83.5574 90.8259 83.5788 90.747 83.6208C90.6681 83.6629 90.6012 83.7242 90.5524 83.7991C90.4987 83.8823 90.4669 83.9777 90.46 84.0765C90.4341 84.1874 90.423 84.3021 90.3897 84.413C90.3601 84.3021 90.3453 84.1874 90.3231 84.0765C90.2979 83.9523 90.3108 83.8234 90.3601 83.7067C90.4127 83.5815 90.5011 83.4746 90.6143 83.3996C90.7275 83.3246 90.8604 83.2848 90.9962 83.2851C91.0854 83.2844 91.1728 83.2605 91.25 83.2158C91.3271 83.1711 91.3913 83.107 91.4362 83.03C91.4847 82.9436 91.5137 82.8477 91.5213 82.7489C91.5435 82.6343 91.5694 82.5196 91.5878 82.4087Z" fill="white" style="fill:white;fill-opacity:1;"/>
<path d="M60.7611 86.5688C60.7944 86.6798 60.8055 86.7907 60.8276 86.9017C60.8498 86.9995 60.8497 87.1011 60.8274 87.1988C60.805 87.2966 60.7609 87.3881 60.6985 87.4666C60.636 87.545 60.5566 87.6085 60.4664 87.6521C60.3761 87.6958 60.2771 87.7186 60.1768 87.7189C60.0873 87.7169 59.9988 87.7379 59.9197 87.78C59.8407 87.8221 59.7739 87.8839 59.7256 87.9593C59.6714 88.0422 59.6395 88.1378 59.6332 88.2367C59.6073 88.3476 59.5962 88.4585 59.5629 88.5695C59.5333 88.4585 59.5185 88.3476 59.4964 88.2367C59.472 88.1124 59.4849 87.9838 59.5333 87.8669C59.5865 87.7423 59.6752 87.6363 59.7883 87.5619C59.9015 87.4876 60.034 87.4483 60.1694 87.449C60.2583 87.4469 60.3452 87.4224 60.4221 87.3778C60.499 87.3332 60.5635 87.2699 60.6095 87.1938C60.6584 87.1063 60.6875 87.0091 60.6945 86.9091C60.7167 86.7907 60.7315 86.6798 60.7611 86.5688Z" fill="white" style="fill:white;fill-opacity:1;"/>
<path d="M61.3602 68.8926C61.3881 69.0036 61.4103 69.1159 61.4268 69.2291C61.4541 69.352 61.4465 69.4801 61.4046 69.5989C61.356 69.7271 61.2702 69.8378 61.1582 69.9169C61.0461 69.996 60.913 70.0398 60.776 70.0427C60.6865 70.0406 60.5979 70.0617 60.5189 70.1038C60.4399 70.1459 60.373 70.2076 60.3248 70.283C60.2711 70.3662 60.2393 70.4616 60.2324 70.5604C60.2065 70.6713 60.1954 70.7823 60.1621 70.8969C60.1325 70.7823 60.1177 70.6713 60.0955 70.5604C60.0707 70.4365 60.0823 70.3081 60.1288 70.1906C60.1824 70.0654 60.2716 69.9587 60.3854 69.8837C60.4991 69.8088 60.6324 69.7689 60.7686 69.769C60.8576 69.7676 60.9448 69.7434 61.0218 69.6987C61.0989 69.6541 61.1632 69.5904 61.2086 69.5138C61.2571 69.4275 61.2861 69.3316 61.2937 69.2328C61.3159 69.1145 61.3307 69.0035 61.3602 68.8926Z" fill="white" style="fill:white;fill-opacity:1;"/>
<path d="M67.8098 57.4023C67.8394 57.5133 67.8542 57.6242 67.8764 57.7389C67.9023 57.8621 67.8934 57.9902 67.8505 58.1087C67.8019 58.2369 67.716 58.3476 67.604 58.4267C67.492 58.5058 67.3589 58.5495 67.2218 58.5524C67.1324 58.5507 67.044 58.5719 66.965 58.614C66.8861 58.6561 66.8192 58.7176 66.7707 58.7928C66.7186 58.8768 66.687 58.9718 66.6782 59.0702C66.656 59.1811 66.6412 59.292 66.6117 59.4067C66.5784 59.292 66.5673 59.1811 66.5414 59.0702C66.5188 58.9459 66.5316 58.8177 66.5784 58.7004C66.6329 58.5761 66.7225 58.4704 66.8361 58.3962C66.9497 58.322 67.0824 58.2825 67.2181 58.2825C67.3067 58.2811 67.3934 58.2569 67.4699 58.2122C67.5463 58.1675 67.6099 58.1038 67.6545 58.0273C67.7062 57.9423 67.7354 57.8456 67.7396 57.7463C67.7654 57.6131 67.7765 57.5133 67.8098 57.4023Z" fill="white" style="fill:white;fill-opacity:1;"/>
<path d="M66.0791 75.1641C66.1087 75.2787 66.1235 75.3896 66.1457 75.5006C66.1665 75.5986 66.1653 75.7 66.1421 75.7974C66.119 75.8949 66.0745 75.986 66.0119 76.0642C65.9493 76.1424 65.8701 76.2057 65.78 76.2496C65.69 76.2934 65.5913 76.3167 65.4911 76.3178C65.4017 76.3162 65.3133 76.3374 65.2343 76.3794C65.1554 76.4215 65.0885 76.483 65.04 76.5582C64.9873 76.6419 64.9555 76.737 64.9475 76.8356C64.9253 76.9465 64.9105 77.0575 64.8809 77.1684C64.8477 77.0575 64.8329 76.9465 64.8107 76.8356C64.7881 76.7113 64.8009 76.5831 64.8477 76.4658C64.9022 76.3415 64.9918 76.2359 65.1054 76.1617C65.219 76.0875 65.3517 76.0479 65.4874 76.0479C65.5757 76.0455 65.6621 76.0209 65.7383 75.9763C65.8146 75.9317 65.8784 75.8685 65.9238 75.7927C65.9734 75.7055 66.0024 75.6081 66.0088 75.508C66.031 75.3897 66.0532 75.2787 66.0791 75.1641Z" fill="white" style="fill:white;fill-opacity:1;"/>
<path d="M81.622 77.5532C81.6516 77.6642 81.6664 77.7788 81.6885 77.8897C81.7094 77.9875 81.7083 78.0888 81.6851 78.1861C81.662 78.2833 81.6174 78.3742 81.5547 78.4522C81.492 78.5301 81.4128 78.593 81.3227 78.6365C81.2326 78.6799 81.134 78.7028 81.034 78.7033C80.9447 78.7023 80.8565 78.7238 80.7777 78.7658C80.6988 78.8078 80.6318 78.869 80.5828 78.9437C80.5313 79.0279 80.4997 79.1227 80.4904 79.221C80.4682 79.332 80.4534 79.4466 80.4238 79.5575C80.3905 79.4466 80.3795 79.332 80.3536 79.221C80.3303 79.0968 80.3432 78.9684 80.3905 78.8512C80.4442 78.726 80.5334 78.6193 80.6471 78.5444C80.7609 78.4694 80.8941 78.4295 81.0303 78.4297C81.119 78.429 81.206 78.4052 81.2826 78.3604C81.3592 78.3156 81.4226 78.2515 81.4667 78.1745C81.5183 78.0895 81.5476 77.9928 81.5517 77.8934C81.585 77.7788 81.585 77.6642 81.622 77.5532Z" fill="white" style="fill:white;fill-opacity:1;"/>
<path d="M67.2549 97.5C67.2845 97.6146 67.2993 97.7256 67.3214 97.8365C67.3436 97.9343 67.3435 98.0359 67.3212 98.1337C67.2988 98.2315 67.2547 98.323 67.1923 98.4014C67.1298 98.4799 67.0504 98.5433 66.9602 98.587C66.8699 98.6307 66.7709 98.6535 66.6706 98.6538C66.581 98.651 66.4922 98.6717 66.413 98.7139C66.3339 98.7561 66.2671 98.8182 66.2194 98.8942C66.1661 98.9765 66.1332 99.0703 66.1233 99.1678C66.1068 99.281 66.0846 99.3934 66.0567 99.5043C66.0271 99.3934 66.0123 99.2824 65.9902 99.1678C65.9655 99.0439 65.9771 98.9155 66.0235 98.798C66.0768 98.6729 66.1661 98.5664 66.28 98.4921C66.3938 98.4177 66.5272 98.3787 66.6632 98.3801C66.7521 98.378 66.839 98.3535 66.9159 98.3089C66.9928 98.2643 67.0573 98.2011 67.1033 98.125C67.1512 98.037 67.1802 97.94 67.1883 97.8402C67.2105 97.7256 67.2253 97.6146 67.2549 97.5Z" fill="white" style="fill:white;fill-opacity:1;"/>
<path d="M78.9553 71.9137C79.0145 71.8138 79.0847 71.7251 79.1476 71.6289C79.2157 71.5221 79.3133 71.4373 79.4287 71.3848C79.551 71.3315 79.6864 71.3153 79.8179 71.3383C79.9494 71.3613 80.0713 71.4225 80.1683 71.5143C80.231 71.5788 80.3089 71.6265 80.3948 71.653C80.4808 71.6794 80.572 71.6839 80.6601 71.6659C80.7552 71.6433 80.8438 71.599 80.919 71.5365C81.0151 71.4699 81.1039 71.4033 81.2074 71.3442C81.1482 71.4477 81.078 71.5365 81.0151 71.6326C80.9438 71.7377 80.8436 71.8199 80.7267 71.8693C80.6015 71.9175 80.4651 71.9285 80.3339 71.9009C80.2027 71.8733 80.0822 71.8084 79.9871 71.714C79.9231 71.6531 79.8449 71.6093 79.7596 71.5867C79.6743 71.5641 79.5846 71.5633 79.4989 71.5845C79.4035 71.6122 79.3153 71.6602 79.2401 71.7251C79.1476 71.7879 79.0589 71.8582 78.9553 71.9137Z" fill="white" style="fill:white;fill-opacity:1;"/>
<path d="M69.8918 80.1271C69.9473 80.0273 70.0176 79.9385 70.0804 79.8424C70.1342 79.7576 70.2063 79.6859 70.2915 79.6328C70.3766 79.5796 70.4727 79.5463 70.5725 79.5353C70.6723 79.5243 70.7732 79.5359 70.8679 79.5692C70.9627 79.6025 71.0487 79.6567 71.1196 79.7277C71.181 79.7927 71.2584 79.8406 71.344 79.8665C71.4296 79.8924 71.5205 79.8956 71.6077 79.8757C71.7043 79.854 71.7943 79.8097 71.8703 79.7462C71.9617 79.6783 72.0568 79.6153 72.155 79.5576C72.0959 79.6575 72.0293 79.7462 71.9664 79.8424C71.9099 79.9252 71.8355 79.9943 71.7488 80.0447C71.6621 80.0951 71.5653 80.1255 71.4653 80.1337C71.3653 80.1418 71.2648 80.1275 71.1711 80.0919C71.0774 80.0562 70.9928 80 70.9236 79.9274C70.8602 79.8657 70.782 79.8213 70.6965 79.7986C70.611 79.776 70.5211 79.7757 70.4355 79.798C70.3401 79.8257 70.2518 79.8736 70.1766 79.9385C70.0804 80.0014 69.9917 80.0716 69.8918 80.1271Z" fill="white" style="fill:white;fill-opacity:1;"/>
<path d="M63.7456 92.2272C63.8048 92.1237 63.875 92.0349 63.9379 91.9425C63.9916 91.8577 64.0638 91.786 64.1489 91.7329C64.2341 91.6797 64.3301 91.6464 64.4299 91.6354C64.5297 91.6244 64.6307 91.636 64.7254 91.6693C64.8201 91.7026 64.9061 91.7568 64.977 91.8278C65.0391 91.8919 65.1165 91.9391 65.2019 91.965C65.2874 91.9909 65.378 91.9946 65.4652 91.9758C65.5618 91.9541 65.6518 91.9098 65.7277 91.8463C65.8192 91.7784 65.9143 91.7154 66.0125 91.6577C65.9533 91.7576 65.8868 91.8463 65.8239 91.9425C65.7677 92.0252 65.6937 92.0943 65.6073 92.1447C65.5209 92.1951 65.4243 92.2255 65.3247 92.2337C65.225 92.2418 65.1247 92.2276 65.0313 92.1919C64.9379 92.1562 64.8536 92.1 64.7847 92.0275C64.7208 91.9654 64.642 91.9209 64.5558 91.8982C64.4696 91.8756 64.3791 91.8755 64.2929 91.8981C64.1971 91.9228 64.1084 91.9697 64.0341 92.0349C63.9379 92.1015 63.8344 92.168 63.7456 92.2272Z" fill="white" style="fill:white;fill-opacity:1;"/>
<path d="M66.4004 104.797C66.4596 104.697 66.5298 104.608 66.5927 104.512C66.6608 104.405 66.7584 104.32 66.8737 104.268C66.9963 104.215 67.1315 104.2 67.2628 104.223C67.3941 104.246 67.5159 104.306 67.6133 104.397C67.6751 104.462 67.7523 104.51 67.8377 104.536C67.9231 104.563 68.0139 104.567 68.1015 104.549C68.1983 104.526 68.2882 104.48 68.364 104.416C68.4565 104.353 68.5452 104.286 68.6488 104.227C68.5896 104.331 68.5231 104.419 68.4602 104.512C68.3878 104.618 68.2864 104.702 68.168 104.752C68.0429 104.8 67.9065 104.811 67.7753 104.784C67.6441 104.756 67.5236 104.691 67.4284 104.597C67.3645 104.536 67.2863 104.492 67.2009 104.47C67.1156 104.447 67.026 104.446 66.9403 104.468C66.8449 104.495 66.7566 104.543 66.6814 104.608C66.5927 104.671 66.5039 104.741 66.4004 104.797Z" fill="white" style="fill:white;fill-opacity:1;"/>
<path d="M78.29 90.9809C78.3455 90.881 78.4158 90.7923 78.4786 90.6961C78.5478 90.5902 78.6451 90.5057 78.7597 90.4521C78.8846 90.3957 79.0234 90.3779 79.1585 90.4009C79.2936 90.424 79.4187 90.4869 79.5178 90.5815C79.5795 90.6462 79.6567 90.6942 79.7422 90.7207C79.8276 90.7472 79.9184 90.7515 80.0059 90.7331C80.1019 90.7099 80.1916 90.6657 80.2685 90.6037C80.3609 90.5408 80.4497 90.4706 80.5532 90.4114C80.4941 90.5149 80.4275 90.6037 80.3646 90.6998C80.293 90.806 80.1913 90.8885 80.0725 90.9365C79.9475 90.9856 79.8109 90.9971 79.6794 90.9695C79.548 90.9419 79.4275 90.8765 79.3329 90.7812C79.2682 90.7203 79.1893 90.6766 79.1034 90.654C79.0175 90.6314 78.9273 90.6306 78.841 90.6518C78.7457 90.6795 78.6574 90.7274 78.5822 90.7923C78.4786 90.8551 78.3899 90.9254 78.29 90.9809Z" fill="white" style="fill:white;fill-opacity:1;"/>
<path d="M86.47 95.988C86.5254 95.8882 86.5957 95.7994 86.6586 95.7033C86.7286 95.5981 86.8257 95.5138 86.9396 95.4592C87.0622 95.4068 87.1973 95.3911 87.3286 95.4141C87.46 95.4371 87.5817 95.4977 87.6792 95.5886C87.7411 95.6531 87.8184 95.7008 87.9038 95.7273C87.9891 95.7539 88.0798 95.7583 88.1674 95.7403C88.2637 95.7179 88.3535 95.6736 88.4299 95.6108C88.5261 95.548 88.6148 95.4777 88.7147 95.4185C88.6592 95.5221 88.5889 95.6108 88.5261 95.707C88.4553 95.814 88.3533 95.8966 88.2339 95.9437C88.1089 95.9928 87.9723 96.0043 87.8409 95.9767C87.7095 95.9491 87.589 95.8836 87.4943 95.7883C87.4296 95.7275 87.3508 95.6837 87.2649 95.6611C87.179 95.6385 87.0888 95.6377 87.0025 95.6589C86.9071 95.6866 86.8188 95.7345 86.7436 95.7994C86.6586 95.8623 86.5698 95.9326 86.47 95.988Z" fill="white" style="fill:white;fill-opacity:1;"/>
<path d="M72.7092 99.79C72.7647 99.6901 72.835 99.6014 72.8978 99.5052C72.9659 99.3984 73.0635 99.3136 73.1789 99.2611C73.3038 99.2048 73.4426 99.1869 73.5777 99.21C73.7128 99.2331 73.8379 99.2959 73.937 99.3906C73.9987 99.4553 74.0759 99.5032 74.1613 99.5298C74.2468 99.5563 74.3376 99.5606 74.4251 99.5422C74.5219 99.5191 74.6118 99.4735 74.6877 99.4091C74.7801 99.3462 74.8689 99.2796 74.9724 99.2205C74.9132 99.324 74.8467 99.4128 74.7838 99.5052C74.7124 99.6125 74.6107 99.6962 74.4917 99.7456C74.3667 99.7947 74.2301 99.8062 74.0986 99.7786C73.9672 99.751 73.8467 99.6855 73.7521 99.5903C73.6874 99.5294 73.6085 99.4856 73.5226 99.463C73.4367 99.4404 73.3465 99.4397 73.2602 99.4608C73.1649 99.4885 73.0766 99.5365 73.0014 99.6014C72.8978 99.6642 72.8091 99.7345 72.7092 99.79Z" fill="white" style="fill:white;fill-opacity:1;"/>
<path d="M90.46 104.797C90.5191 104.697 90.5857 104.608 90.6486 104.512C90.7176 104.406 90.8149 104.321 90.9296 104.268C91.0545 104.212 91.1934 104.194 91.3284 104.217C91.4635 104.24 91.5886 104.303 91.6877 104.397C91.7496 104.462 91.8269 104.51 91.9122 104.536C91.9976 104.563 92.0883 104.567 92.1758 104.549C92.2721 104.527 92.362 104.482 92.4384 104.42C92.5346 104.353 92.6233 104.286 92.7231 104.227C92.6677 104.331 92.5974 104.42 92.5345 104.516C92.4632 104.621 92.3631 104.703 92.2461 104.752C92.121 104.801 91.9845 104.812 91.8532 104.785C91.7219 104.757 91.6014 104.692 91.5065 104.597C91.4424 104.537 91.3641 104.493 91.2789 104.47C91.1936 104.448 91.1041 104.447 91.0184 104.468C90.9215 104.494 90.8318 104.542 90.7558 104.608C90.6449 104.671 90.5561 104.741 90.46 104.797Z" fill="white" style="fill:white;fill-opacity:1;"/>
<path d="M92.4604 91.2653C92.5159 91.1618 92.5862 91.073 92.6491 90.9769C92.7191 90.8717 92.8162 90.7874 92.9301 90.7328C93.055 90.6764 93.1939 90.6586 93.3289 90.6817C93.464 90.7047 93.5891 90.7676 93.6882 90.8623C93.7501 90.9267 93.8274 90.9744 93.9127 91.001C93.9981 91.0275 94.0888 91.0319 94.1763 91.0139C94.2726 90.9915 94.3625 90.9472 94.4389 90.8844C94.535 90.8216 94.6238 90.7513 94.7236 90.6921C94.6682 90.7957 94.5979 90.8844 94.535 90.9806C94.4643 91.0876 94.3623 91.1702 94.2429 91.2173C94.1179 91.2664 93.9813 91.2779 93.8498 91.2503C93.7184 91.2227 93.5979 91.1572 93.5033 91.0619C93.4392 91.0014 93.3609 90.9578 93.2757 90.9352C93.1904 90.9126 93.1009 90.9117 93.0152 90.9325C92.9183 90.9593 92.8286 91.0073 92.7526 91.073C92.6491 91.1396 92.5603 91.2099 92.4604 91.2653Z" fill="white" style="fill:white;fill-opacity:1;"/>
<path d="M60.0439 101.524C60.1031 101.42 60.1697 101.331 60.2325 101.235C60.3026 101.13 60.3997 101.046 60.5136 100.991C60.6385 100.935 60.7773 100.917 60.9124 100.94C61.0475 100.963 61.1726 101.026 61.2717 101.121C61.3336 101.185 61.4109 101.233 61.4962 101.259C61.5816 101.286 61.6723 101.29 61.7598 101.272C61.8561 101.25 61.946 101.205 62.0224 101.143C62.1185 101.08 62.2073 101.01 62.3071 100.95C62.2517 101.054 62.1814 101.143 62.1185 101.239C62.0482 101.345 61.9477 101.427 61.8301 101.476C61.705 101.524 61.5685 101.535 61.4372 101.508C61.3059 101.48 61.1854 101.415 61.0905 101.32C61.0266 101.259 60.9482 101.216 60.8627 101.194C60.7773 101.172 60.6877 101.172 60.6023 101.195C60.5051 101.218 60.415 101.265 60.3398 101.331C60.2325 101.394 60.1364 101.464 60.0439 101.524Z" fill="white" style="fill:white;fill-opacity:1;"/>
<path d="M59.0271 80.4116C59.0826 80.3118 59.1528 80.223 59.2157 80.1269C59.2855 80.0206 59.3826 79.935 59.4967 79.8791C59.622 79.8232 59.7611 79.806 59.8962 79.8297C60.0312 79.8534 60.1562 79.917 60.2548 80.0122C60.3165 80.0769 60.3939 80.1246 60.4794 80.1505C60.565 80.1764 60.6558 80.1797 60.743 80.1602C60.8404 80.141 60.931 80.0963 61.0055 80.0307C61.1017 79.9679 61.1904 79.8976 61.2903 79.8421C61.2326 79.9404 61.1696 80.0354 61.1017 80.1269C61.0306 80.233 60.9305 80.3165 60.8132 80.3672C60.6882 80.4159 60.5517 80.4271 60.4203 80.3996C60.289 80.372 60.1686 80.3068 60.0736 80.2119C60.0101 80.1505 59.9319 80.1063 59.8464 80.0837C59.761 80.061 59.6711 80.0606 59.5855 80.0825C59.4886 80.1093 59.3989 80.1573 59.3229 80.223C59.2194 80.2859 59.1306 80.3561 59.0271 80.4116Z" fill="white" style="fill:white;fill-opacity:1;"/>
<path d="M71.0934 52.2438C70.9565 52.9353 67.8354 57.4876 64.6995 57.4469C63.6788 57.4284 63.5161 51.8518 63.5161 51.8518L63.4089 51.445L61.9297 45.7205L68.5602 41.146L69.5217 40.5396C69.5217 40.5396 69.8213 42.1334 70.18 44.1192C70.18 44.2117 70.2132 44.3041 70.228 44.404C70.2428 44.5038 70.2761 44.6185 70.2909 44.7257C70.3501 45.0215 70.4055 45.3248 70.4573 45.628C70.498 45.8573 70.535 46.0792 70.5682 46.3232C70.6015 46.5673 70.6385 46.804 70.6792 47.0629C70.9351 48.7784 71.0734 50.5094 71.0934 52.2438Z" fill="#F7A9A0" style="fill:#F7A9A0;fill:color(display-p3 0.9686 0.6627 0.6275);fill-opacity:1;"/>
<path d="M70.18 44.1192C69.6503 45.7584 68.7703 47.2626 67.601 48.5276C66.4318 49.7927 65.0013 50.7881 63.4089 51.445L61.9297 45.7205L68.5602 41.146L69.5217 40.5396C69.5217 40.5396 69.8213 42.1334 70.18 44.1192Z" fill="#263238" style="fill:#263238;fill:color(display-p3 0.1490 0.1961 0.2196);fill-opacity:1;"/>
<path d="M53.8018 37.2191C53.5281 47.5957 59.7186 48.9307 61.9374 48.9862C63.9676 49.038 70.8903 48.9566 72.2364 38.665C73.5825 28.3734 68.8416 24.9824 64.2043 24.6126C59.567 24.2428 54.0754 26.8425 53.8018 37.2191Z" fill="#F7A9A0" style="fill:#F7A9A0;fill:color(display-p3 0.9686 0.6627 0.6275);fill-opacity:1;"/>
<path d="M55.377 34.0789C55.6211 34.0382 55.8355 33.9642 56.0722 33.9014C56.3249 33.8705 56.561 33.759 56.7453 33.5833C56.7924 33.5166 56.8162 33.4362 56.8129 33.3546C56.8095 33.273 56.7792 33.1948 56.7268 33.1322C56.6036 33.0248 56.4541 32.952 56.2936 32.9215C56.1331 32.891 55.9673 32.9037 55.8134 32.9584C55.4857 33.0203 55.1929 33.2023 54.9924 33.4687C54.9504 33.5322 54.9276 33.6065 54.9268 33.6826C54.9259 33.7588 54.9471 33.8335 54.9877 33.8979C55.0283 33.9623 55.0866 34.0137 55.1557 34.0458C55.2247 34.0779 55.3016 34.0894 55.377 34.0789Z" fill="#263238" style="fill:#263238;fill:color(display-p3 0.1490 0.1961 0.2196);fill-opacity:1;"/>
<path d="M62.3145 35.5957C62.0758 35.5695 61.8387 35.53 61.6045 35.4774C61.3511 35.4705 61.1069 35.3809 60.9092 35.2222C60.8562 35.16 60.8253 35.082 60.8212 35.0004C60.8172 34.9188 60.8404 34.8381 60.887 34.7711C61.0001 34.6529 61.1426 34.567 61.2999 34.5221C61.4572 34.4773 61.6236 34.4751 61.782 34.5159C62.114 34.55 62.4213 34.707 62.6436 34.956C62.6921 35.0151 62.7223 35.0871 62.7304 35.1631C62.7384 35.2392 62.7241 35.3159 62.6891 35.3839C62.6541 35.4519 62.6 35.5082 62.5335 35.5458C62.4669 35.5835 62.3908 35.6008 62.3145 35.5957Z" fill="#263238" style="fill:#263238;fill:color(display-p3 0.1490 0.1961 0.2196);fill-opacity:1;"/>
<path d="M56.9079 37.4563C56.9079 37.4304 56.8561 37.4933 56.8561 37.5229C56.9264 38.2255 56.8894 39.0428 56.2682 39.3201C56.246 39.3201 56.2682 39.3645 56.2682 39.3608C57.0447 39.1981 57.0854 38.1109 56.9079 37.4563Z" fill="#263238" style="fill:#263238;fill:color(display-p3 0.1490 0.1961 0.2196);fill-opacity:1;"/>
<path d="M56.2276 36.7607C55.0886 36.7607 55.1515 39.0313 56.2091 39.0424C57.2667 39.0535 57.178 36.7718 56.2276 36.7607Z" fill="#263238" style="fill:#263238;fill:color(display-p3 0.1490 0.1961 0.2196);fill-opacity:1;"/>
<path d="M55.7576 36.9274C55.5801 37.0531 55.4099 37.275 55.1918 37.2972C54.9736 37.3194 54.7517 37.079 54.5853 36.846C54.5853 36.8238 54.552 36.846 54.552 36.8719C54.552 37.3083 54.711 37.7594 55.1289 37.8297C55.5468 37.8999 55.7834 37.5154 55.8685 37.0901C55.8944 36.9976 55.8278 36.8756 55.7576 36.9274Z" fill="#263238" style="fill:#263238;fill:color(display-p3 0.1490 0.1961 0.2196);fill-opacity:1;"/>
<path d="M61.5488 43.4942C61.375 43.6532 61.1975 43.864 60.9387 43.8899C60.6805 43.8727 60.4286 43.8022 60.1991 43.6828C60.194 43.6803 60.1883 43.6796 60.1828 43.6807C60.1773 43.6817 60.1723 43.6846 60.1685 43.6888C60.1648 43.6929 60.1625 43.6982 60.162 43.7038C60.1615 43.7094 60.1628 43.715 60.1658 43.7198C60.2622 43.8629 60.3957 43.977 60.5521 44.05C60.7084 44.123 60.8817 44.152 61.0533 44.1339C61.1995 44.103 61.3328 44.0284 61.4358 43.9202C61.5388 43.8119 61.6066 43.675 61.6302 43.5275C61.6154 43.4868 61.5747 43.472 61.5488 43.4942Z" fill="#263238" style="fill:#263238;fill:color(display-p3 0.1490 0.1961 0.2196);fill-opacity:1;"/>
<path d="M58.0134 40.6584C58.0134 40.6584 57.932 41.716 57.9579 42.2116C58.9265 42.1584 59.8976 42.2431 60.8424 42.463C61.0643 42.5222 61.0495 42.341 60.798 42.2079C60.0489 41.8176 59.2002 41.6605 58.361 41.7567C58.3166 41.6199 58.52 40.1296 58.4424 40.1296C58.06 40.1857 57.6869 40.2927 57.333 40.4476C57.4439 38.2288 57.9098 36.0692 57.9875 33.8689C57.9886 33.8527 57.9838 33.8368 57.9739 33.824C57.9641 33.8111 57.95 33.8023 57.9341 33.7991C57.9183 33.796 57.9019 33.7987 57.8879 33.8067C57.8739 33.8148 57.8633 33.8277 57.8581 33.843C57.2072 36.0877 57.0223 38.6245 56.8485 40.9025C56.8263 41.1835 57.8211 40.7546 58.0134 40.6584Z" fill="#263238" style="fill:#263238;fill:color(display-p3 0.1490 0.1961 0.2196);fill-opacity:1;"/>
<path d="M62.9506 37.4926C62.5353 37.3297 62.081 37.2937 61.6452 37.389C61.4116 37.4421 61.1906 37.5401 60.9944 37.6775C60.7921 37.8285 60.6266 38.0231 60.5099 38.247L60.2917 38.65L60.7392 38.602C61.0539 38.5686 61.3712 38.5686 61.6859 38.602C62.0143 38.6307 62.33 38.7427 62.603 38.9274C62.4242 38.6007 62.124 38.3576 61.7673 38.2507C61.4196 38.1358 61.0519 38.0942 60.6874 38.1286L60.9167 38.4984C61.1081 38.1775 61.4027 37.9311 61.7525 37.7995C62.1376 37.6478 62.54 37.5447 62.9506 37.4926Z" fill="#263238" style="fill:#263238;fill:color(display-p3 0.1490 0.1961 0.2196);fill-opacity:1;"/>
<path d="M61.6675 39.33C61.3327 39.2514 61.0104 39.127 60.7097 38.9602C60.6394 38.9158 60.3695 38.7124 60.3843 38.6532C60.4225 38.4813 60.4821 38.3148 60.5618 38.1577C60.4375 38.2973 60.3431 38.4609 60.2844 38.6385C60.3051 38.7362 60.3469 38.8283 60.407 38.9081C60.467 38.988 60.5439 39.0537 60.632 39.1007C60.95 39.2696 61.3079 39.3488 61.6675 39.33Z" fill="#263238" style="fill:#263238;fill:color(display-p3 0.1490 0.1961 0.2196);fill-opacity:1;"/>
<path d="M59.2119 42.1378C59.2119 42.1378 59.8554 43.0623 60.595 43.1732C61.4455 43.3064 61.5454 42.5409 60.595 42.1045C60.1142 41.8789 59.2119 42.1378 59.2119 42.1378Z" fill="#263238" style="fill:#263238;fill:color(display-p3 0.1490 0.1961 0.2196);fill-opacity:1;"/>
<path d="M60.5913 43.1914C60.269 43.1245 59.9725 42.9667 59.7371 42.7366C59.9146 42.474 60.3213 42.1819 61.2348 42.6737C61.3679 42.9844 61.1312 43.258 60.5913 43.1914Z" fill="#FF99BA" style="fill:#FF99BA;fill:color(display-p3 1.0000 0.6000 0.7294);fill-opacity:1;"/>
<path d="M72.1732 38.9126C70.4647 39.1271 69.8952 35.5511 69.8952 35.5511C69.8952 35.5511 66.4117 35.7286 65.0176 30.7733C65.1906 32.2703 65.7972 33.6842 66.763 34.8411C66.763 34.8411 60.5836 34.4713 57.7473 29.4679C57.7473 29.4679 58.9084 32.038 59.9217 32.9218C59.9217 32.9218 57.3072 32.3301 55.95 30.2962C55.95 30.2962 55.0181 33.3175 54.2304 34.1791C54.2304 34.1791 53.9605 23.4142 63.9784 24.0725C63.9784 24.0725 70.2355 24.1834 72.7168 29.013C75.1982 33.8426 72.1732 38.9126 72.1732 38.9126Z" fill="#263238" style="fill:#263238;fill:color(display-p3 0.1490 0.1961 0.2196);fill-opacity:1;"/>
<path d="M70.5757 39.4158C70.5757 39.4158 72.6429 36.0469 74.1591 36.7643C75.6753 37.4817 74.2553 42.2743 72.5727 43.0176C72.3634 43.1283 72.134 43.1955 71.8981 43.2151C71.6622 43.2347 71.4248 43.2063 71.2002 43.1317C70.9756 43.057 70.7684 42.9377 70.5912 42.7808C70.4139 42.6239 70.2703 42.4328 70.1689 42.2189L70.5757 39.4158Z" fill="#F7A9A0" style="fill:#F7A9A0;fill:color(display-p3 0.9686 0.6627 0.6275);fill-opacity:1;"/>
<path d="M73.719 38.1289C73.7449 38.1289 73.7523 38.1622 73.719 38.1733C72.5394 38.7354 71.9736 39.8929 71.5964 41.0836C71.9292 40.614 72.4025 40.344 73.0275 40.7138C73.0608 40.7323 73.0275 40.7841 72.9979 40.7804C72.7819 40.725 72.5539 40.7383 72.3458 40.8185C72.1376 40.8987 71.9597 41.0418 71.8367 41.2278C71.6297 41.5378 71.4585 41.8703 71.3264 42.2189C71.2746 42.3299 71.0786 42.2855 71.1119 42.1597C71.1098 42.15 71.1098 42.1399 71.1119 42.1302C71.0084 40.6029 72.0734 38.3841 73.719 38.1289Z" fill="#263238" style="fill:#263238;fill:color(display-p3 0.1490 0.1961 0.2196);fill-opacity:1;"/>
<path d="M71.6001 42.4775C71.6054 42.5733 71.639 42.6653 71.6966 42.7419C71.7543 42.8186 71.8333 42.8764 71.9239 42.908C72.0144 42.9397 72.1123 42.9438 72.2051 42.9197C72.298 42.8957 72.3816 42.8447 72.4454 42.7731C72.5092 42.7015 72.5503 42.6126 72.5636 42.5176C72.5768 42.4226 72.5616 42.3258 72.5197 42.2395C72.4779 42.1532 72.4114 42.0813 72.3287 42.0328C72.2459 41.9843 72.1507 41.9615 72.0549 41.9672C71.9914 41.9705 71.9292 41.9863 71.8719 42.0138C71.8146 42.0413 71.7633 42.0799 71.721 42.1274C71.6787 42.1749 71.6462 42.2302 71.6255 42.2903C71.6047 42.3504 71.5961 42.414 71.6001 42.4775Z" fill="white" style="fill:white;fill-opacity:1;"/>
<path d="M72.7611 41.6756C72.7641 41.737 72.7853 41.7962 72.8221 41.8456C72.8588 41.895 72.9094 41.9324 72.9674 41.953C73.0254 41.9736 73.0882 41.9765 73.1479 41.9613C73.2076 41.9461 73.2614 41.9136 73.3025 41.8678C73.3436 41.822 73.3702 41.765 73.3789 41.704C73.3875 41.6431 73.3779 41.5809 73.3512 41.5255C73.3245 41.47 73.2819 41.4237 73.2289 41.3925C73.1758 41.3613 73.1147 41.3465 73.0532 41.3501C73.0126 41.352 72.9727 41.362 72.9359 41.3794C72.8992 41.3968 72.8662 41.4214 72.839 41.4517C72.8118 41.482 72.7909 41.5174 72.7776 41.5558C72.7642 41.5942 72.7586 41.6349 72.7611 41.6756Z" fill="white" style="fill:white;fill-opacity:1;"/>
<path d="M39.1097 61.8572L33.739 63.105L37.6022 79.7321L42.9728 78.4843L39.1097 61.8572Z" fill="#EBEBEB" style="fill:#EBEBEB;fill:color(display-p3 0.9216 0.9216 0.9216);fill-opacity:1;"/>
<path d="M26.0182 17.7232C21.5311 18.7672 17.4543 21.118 14.303 24.4786C11.1517 27.8391 9.06755 32.0585 8.31389 36.6034C7.56022 41.1482 8.17092 45.8145 10.0688 50.0123C11.9667 54.2102 15.0665 57.7511 18.9764 60.1875C22.8864 62.6239 27.4309 63.8464 32.0355 63.7005C36.6401 63.5546 41.0981 62.0468 44.8459 59.3677C48.5937 56.6886 51.4631 52.9584 53.0914 48.6489C54.7196 44.3393 55.0336 39.6437 53.9937 35.1557C53.3027 32.1735 52.0307 29.3567 50.2505 26.8663C48.4703 24.3759 46.2167 22.2608 43.6186 20.6419C41.0205 19.0229 38.1288 17.9319 35.1089 17.4311C32.0889 16.9303 28.9998 17.0295 26.0182 17.7232ZM35.4555 58.3533C31.9103 59.1779 28.2001 58.9326 24.7942 57.6483C21.3884 56.3641 18.44 54.0986 16.3219 51.1384C14.2037 48.1783 13.0111 44.6564 12.8948 41.0184C12.7785 37.3803 13.7438 33.7895 15.6685 30.7001C17.5932 27.6107 20.391 25.1615 23.7078 23.6624C27.0247 22.1632 30.7116 21.6814 34.3023 22.2779C37.893 22.8744 41.2262 24.5224 43.8801 27.0134C46.5341 29.5045 48.3897 32.7267 49.2122 36.2725C50.3145 41.0247 49.4846 46.0202 46.905 50.1608C44.3254 54.3014 40.2071 57.2481 35.4555 58.3533Z" fill="#A6A6A6" style="fill:#A6A6A6;fill:color(display-p3 0.6510 0.6510 0.6510);fill-opacity:1;"/>
<path d="M40.9426 73.779L37.3405 74.6159C36.0932 74.9057 35.317 76.1518 35.6068 77.3991L40.2139 97.2285C40.5037 98.4759 41.7498 99.2521 42.9972 98.9623L46.5992 98.1254C47.8466 97.8356 48.6228 96.5895 48.333 95.3421L43.7258 75.5128C43.436 74.2654 42.1899 73.4892 40.9426 73.779Z" fill="#263238" style="fill:#263238;fill:color(display-p3 0.1490 0.1961 0.2196);fill-opacity:1;"/>
<g opacity="0.3">
<path d="M49.2124 36.2648C50.0344 39.8092 49.787 43.5177 48.5015 46.9215C47.216 50.3253 44.9501 53.2714 41.9903 55.3875C39.0305 57.5036 35.5097 58.6945 31.8731 58.8097C28.2364 58.9249 24.6473 57.9593 21.5595 56.0348C18.4717 54.1103 16.0238 51.3135 14.5254 47.9979C13.027 44.6824 12.5453 40.9969 13.1413 37.4076C13.7374 33.8183 15.3842 30.4864 17.8738 27.833C20.3634 25.1796 23.5838 23.324 27.1279 22.5008C29.4818 21.9535 31.9204 21.8755 34.3045 22.2711C36.6886 22.6667 38.9713 23.5283 41.0223 24.8065C43.0732 26.0848 44.8522 27.7546 46.2575 29.7207C47.6628 31.6868 48.6669 33.9105 49.2124 36.2648Z" fill="white" style="fill:white;fill-opacity:1;"/>
<path d="M49.6635 41.4492C49.3919 46.2926 47.2196 50.8329 43.6188 54.0834C40.0179 57.3339 35.2796 59.0317 30.4338 58.8077L49.6635 41.4492Z" fill="#EBEBEB" style="fill:#EBEBEB;fill:color(display-p3 0.9216 0.9216 0.9216);fill-opacity:1;"/>
<path d="M41.1985 24.9239L14.8575 48.6984C14.2022 47.3929 13.7056 46.0136 13.3783 44.5899C12.995 42.9588 12.8407 41.2823 12.9198 39.6087L32.3676 22.0542C35.5084 22.239 38.5491 23.2271 41.1985 24.9239Z" fill="#EBEBEB" style="fill:#EBEBEB;fill:color(display-p3 0.9216 0.9216 0.9216);fill-opacity:1;"/>
<path d="M48.7055 34.5007L23.6145 57.1437C22.518 56.6398 21.4738 56.0291 20.4971 55.3205L47.2152 31.2095C47.8224 32.2532 48.3217 33.3559 48.7055 34.5007Z" fill="#EBEBEB" style="fill:#EBEBEB;fill:color(display-p3 0.9216 0.9216 0.9216);fill-opacity:1;"/>
<path d="M43.2212 26.424L16.1296 50.8679C16.0038 50.683 15.8781 50.4981 15.7598 50.3095L42.6961 26.0024C42.881 26.1356 43.0548 26.2724 43.2212 26.424Z" fill="#EBEBEB" style="fill:#EBEBEB;fill:color(display-p3 0.9216 0.9216 0.9216);fill-opacity:1;"/>
<path d="M26.2327 22.7344L14.2141 33.577C14.4175 33.0629 14.6468 32.56 14.8982 32.0719L24.6721 23.2484C25.1787 23.0598 25.7001 22.886 26.2327 22.7344Z" fill="#EBEBEB" style="fill:#EBEBEB;fill:color(display-p3 0.9216 0.9216 0.9216);fill-opacity:1;"/>
</g>
<path d="M18.2305 43.6091C18.2287 43.5845 18.2287 43.5598 18.2305 43.5352C18.1639 43.1654 18.2785 43.8865 18.2305 43.6461C18.1824 43.4058 18.1565 43.0766 18.1343 42.7919C18.0493 41.7878 18.0493 40.7784 18.1343 39.7743C18.1343 39.6301 18.1602 39.4896 18.1713 39.349C18.1713 39.3047 18.1306 39.6819 18.1713 39.3823L18.2046 39.1235C18.249 38.7906 18.3044 38.4578 18.371 38.1287C18.5112 37.4031 18.7003 36.6877 18.9368 35.9875C18.9923 35.8211 19.0551 35.6547 19.1143 35.4883C19.192 35.2627 19.0108 35.7361 19.1328 35.4402L19.2548 35.1481C19.4138 34.7783 19.5876 34.4085 19.7725 34.0387C19.9575 33.6689 20.1978 33.2732 20.4308 32.9071C20.5417 32.737 20.6527 32.5706 20.7673 32.4042C20.9633 32.1194 20.6749 32.5188 20.8265 32.3191L21.0447 32.0307C21.7181 31.1841 22.471 30.404 23.2931 29.7009C23.2931 29.7009 23.4632 29.5641 23.3374 29.6676C23.2117 29.7712 23.404 29.6122 23.4262 29.5937L23.796 29.3015C24.0438 29.1166 24.2952 28.9317 24.5541 28.769C25.0963 28.4066 25.6567 28.0721 26.233 27.7668C26.3874 27.6697 26.5212 27.5431 26.6267 27.3943C26.7322 27.2455 26.8074 27.0773 26.8479 26.8994C26.8884 26.7216 26.8935 26.5374 26.8629 26.3576C26.8322 26.1777 26.7665 26.0057 26.6693 25.8513C26.5722 25.6968 26.4456 25.5631 26.2968 25.4575C26.148 25.352 25.9798 25.2769 25.8019 25.2364C25.6241 25.1958 25.4399 25.1908 25.2601 25.2214C25.0803 25.252 24.9082 25.3178 24.7538 25.4149C21.1001 27.3638 18.0973 30.4405 16.5886 34.3197C15.5671 36.9285 15.1315 39.7299 15.3127 42.5256C15.3497 43.1466 15.4287 43.7644 15.5494 44.3746C15.6548 44.7266 15.8952 45.0226 16.2181 45.1979C16.5409 45.3732 16.9201 45.4136 17.2727 45.3102C17.6195 45.1961 17.9096 44.9536 18.0835 44.6326C18.2574 44.3115 18.3021 43.9361 18.2083 43.5833L18.2305 43.6091Z" fill="white" style="fill:white;fill-opacity:1;"/>
<path d="M19.458 47.5437C19.5346 47.8016 19.5329 48.0765 19.4532 48.3335C19.3736 48.5905 19.2195 48.8181 19.0106 48.9876C18.8016 49.1571 18.5471 49.2608 18.2792 49.2857C18.0112 49.3105 17.742 49.2554 17.5054 49.1273C17.2688 48.9992 17.0754 48.8038 16.9498 48.5659C16.8242 48.3279 16.772 48.0581 16.7997 47.7904C16.8274 47.5228 16.9339 47.2694 17.1056 47.0622C17.2773 46.8551 17.5065 46.7035 17.7644 46.6265C17.9358 46.5749 18.1157 46.5577 18.2938 46.5759C18.4719 46.5941 18.6447 46.6473 18.8021 46.7326C18.9595 46.8178 19.0985 46.9334 19.2111 47.0726C19.3237 47.2118 19.4076 47.3719 19.458 47.5437Z" fill="white" style="fill:white;fill-opacity:1;"/>
<path d="M78.3048 59.2035C81.633 71.2368 83.2305 83.3183 81.3889 89.5494C80.2129 93.5211 77.3766 96.2059 75.5719 97.0934C71.3525 99.1791 57.3555 96.2206 48.2362 94.3864C45.9952 93.9353 51.2797 75.8779 53.5318 76.8356C56.86 78.2446 67.048 80.1454 67.3291 80.2378C67.9318 80.4449 69.178 67.3872 70.0582 59.7323C71.2748 49.0672 76.3855 52.2549 78.3048 59.2035Z" fill="#F7A9A0" style="fill:#F7A9A0;fill:color(display-p3 0.9686 0.6627 0.6275);fill-opacity:1;"/>
<path d="M30.7114 73.3969C29.7203 75.013 31.0072 76.4922 31.0072 76.4922C30.1624 76.9147 29.4924 77.62 29.1138 78.4854C28.5184 80.0386 30.6929 81.6546 30.6929 81.6546C29.9082 82.2749 29.3294 83.1179 29.0325 84.0731C28.6109 85.6189 30.5745 87.5603 30.5745 87.5603C30.169 88.5284 30.1257 89.6101 30.4525 90.6075C31.4325 93.2368 35.6297 94.0984 38.2923 94.6753C40.9549 95.2522 49.0461 94.3795 50.6067 94.3721L54.4341 77.3131C54.4341 77.3131 43.2254 71.3408 40.0119 71.1116C37.279 70.9267 31.8245 71.5849 30.7114 73.3969Z" fill="#F7A9A0" style="fill:#F7A9A0;fill:color(display-p3 0.9686 0.6627 0.6275);fill-opacity:1;"/>
<path d="M31.1845 76.2442C34.1429 75.7598 37.0496 76.1665 39.9895 76.4069C40.0032 76.4069 40.0164 76.4124 40.0261 76.4221C40.0358 76.4318 40.0413 76.445 40.0413 76.4587C40.0413 76.4724 40.0358 76.4856 40.0261 76.4953C40.0164 76.505 40.0032 76.5105 39.9895 76.5105C37.0644 76.2368 34.1245 76.5437 31.1993 76.3884C31.1823 76.3868 31.1664 76.3793 31.1544 76.3672C31.1423 76.3552 31.1347 76.3393 31.133 76.3224C31.1312 76.3054 31.1354 76.2883 31.1448 76.2741C31.1542 76.2598 31.1682 76.2493 31.1845 76.2442Z" fill="#263238" style="fill:#263238;fill:color(display-p3 0.1490 0.1961 0.2196);fill-opacity:1;"/>
<path d="M30.8 81.4438C31.4783 81.3965 32.1598 81.44 32.8266 81.5732C33.539 81.6669 34.2503 81.7729 34.9603 81.8912C36.3828 82.1378 37.7979 82.4102 39.2056 82.7085C39.2685 82.7085 39.2648 82.8194 39.2056 82.8083C37.7856 82.5754 36.3656 82.3646 34.9418 82.1908C34.2281 82.102 33.5144 82.0243 32.797 81.9467C32.1183 81.9192 31.4448 81.8162 30.789 81.6398C30.7688 81.6317 30.7517 81.6175 30.7401 81.5992C30.7284 81.5809 30.7228 81.5594 30.724 81.5378C30.7253 81.5161 30.7333 81.4954 30.7469 81.4785C30.7605 81.4617 30.7791 81.4495 30.8 81.4438Z" fill="#263238" style="fill:#263238;fill:color(display-p3 0.1490 0.1961 0.2196);fill-opacity:1;"/>
<path d="M30.6334 87.567C31.2103 87.4672 31.8834 87.6742 32.4529 87.7815C33.1 87.9035 33.7435 88.0182 34.3906 88.1328C35.6849 88.3621 36.9792 88.5877 38.2809 88.7726C38.3438 88.7726 38.3364 88.8835 38.2809 88.8724C36.957 88.6949 35.6332 88.5322 34.313 88.3436C33.6658 88.2511 33.015 88.1513 32.3678 88.0514C31.8168 87.9664 31.1216 87.922 30.6297 87.6336C30.6236 87.6302 30.6186 87.6252 30.6152 87.6191C30.6119 87.613 30.6103 87.6061 30.6107 87.5991C30.611 87.5922 30.6134 87.5855 30.6174 87.5798C30.6214 87.5741 30.627 87.5697 30.6334 87.567Z" fill="#263238" style="fill:#263238;fill:color(display-p3 0.1490 0.1961 0.2196);fill-opacity:1;"/>
<path d="M34.3647 71.6296C33.0223 71.8034 31.4839 72.0992 30.6149 73.2419C30.2131 73.7266 30.0155 74.3485 30.0639 74.9763C30.1403 75.5624 30.4364 76.0977 30.8922 76.474C30.3557 76.6468 29.8788 76.9675 29.5164 77.3993C29.154 77.831 28.9208 78.3563 28.8435 78.9146C28.821 79.1942 28.8563 79.4754 28.9473 79.7408C29.0383 80.0061 29.183 80.2498 29.3723 80.4567C29.5572 80.6749 29.768 80.8672 29.9714 81.0669C30.1748 81.2666 30.4004 81.4367 30.6112 81.6105C30.3832 81.7885 30.1693 81.9839 29.9714 82.1948C29.7494 82.408 29.5499 82.6435 29.376 82.8974C29.0161 83.4005 28.8129 83.9987 28.7917 84.617C28.8225 85.2313 29.0363 85.8225 29.4056 86.3144C29.7059 86.823 30.1294 87.2477 30.6371 87.5495C30.6434 87.5526 30.6507 87.5533 30.6575 87.5515C30.6643 87.5497 30.6703 87.5455 30.6743 87.5397C30.6783 87.5339 30.6801 87.5269 30.6794 87.5199C30.6787 87.5128 30.6755 87.5063 30.6703 87.5014C30.2713 87.1371 29.933 86.7114 29.6682 86.2404C29.3483 85.7379 29.173 85.1571 29.1615 84.5615C29.2105 83.9968 29.4013 83.4537 29.7163 82.9825C29.8729 82.7269 30.0432 82.48 30.2266 82.2429C30.4092 82.049 30.5796 81.8439 30.7369 81.629C30.7369 81.629 30.2968 81.163 30.1415 80.9634C29.9862 80.7637 29.8346 80.5492 29.6941 80.331C29.3963 79.9169 29.2644 79.4063 29.3243 78.8999C29.4115 78.4271 29.6263 77.9872 29.9455 77.6277C30.2562 77.2579 30.6592 76.9658 30.9847 76.6034C30.9963 76.5842 31.004 76.5628 31.0072 76.5406C31.0103 76.5183 31.009 76.4957 31.0032 76.474C30.2636 75.3202 30.356 74.2256 31.1474 73.3713C31.5505 72.9571 32.0222 72.6155 32.5415 72.3618C33.1392 72.0901 33.7575 71.8662 34.3905 71.6924C34.4164 71.6887 34.4053 71.6259 34.3647 71.6296Z" fill="#263238" style="fill:#263238;fill:color(display-p3 0.1490 0.1961 0.2196);fill-opacity:1;"/>
<path d="M58.8826 96.4756C58.0949 96.2315 57.2629 96.1058 56.4567 95.9283C55.6505 95.7508 54.837 95.5844 54.0234 95.4217C53.2098 95.2589 52.363 95.0962 51.5346 94.9409C50.7063 94.7856 49.9334 94.6118 49.1272 94.5156C48.3489 94.4404 47.5643 94.4578 46.7901 94.5674C46.0086 94.6562 45.2246 94.719 44.4381 94.756C42.8537 94.8325 41.2658 94.7979 39.6862 94.6525C37.899 94.4865 36.1288 94.1711 34.3943 93.7095C34.3574 93.7095 34.3463 93.7539 34.3943 93.765C37.4016 94.7689 40.5541 95.2687 43.7244 95.2442C44.5084 95.2442 45.2961 95.1961 46.0764 95.1184C46.856 95.0077 47.6412 94.941 48.4283 94.9187C49.2605 94.9737 50.0867 95.0974 50.8986 95.2885C51.7158 95.4402 52.5294 95.5955 53.3467 95.7397C54.2712 95.9024 55.1957 96.0688 56.1239 96.213C57.0521 96.3573 57.9729 96.5644 58.8826 96.6309C58.9492 96.6161 58.9529 96.4941 58.8826 96.4756Z" fill="#263238" style="fill:#263238;fill:color(display-p3 0.1490 0.1961 0.2196);fill-opacity:1;"/>
<path d="M70.3686 80.9852C69.1852 80.5821 67.9353 80.3306 66.7186 80.0385C65.502 79.7463 64.2705 79.4653 63.0465 79.1879C60.7093 78.6591 58.3426 78.2117 56.0203 77.5645C55.4101 77.3944 54.8073 77.1947 54.2119 76.995C53.9124 76.8878 53.6202 76.7694 53.3281 76.6252C53.036 76.481 52.6994 76.3922 52.411 76.2554C52.3777 76.2332 52.3518 76.285 52.3851 76.3072C52.6181 76.4514 52.8326 76.6252 53.0729 76.7657C53.3133 76.9063 53.6054 77.0468 53.8791 77.1725C54.3793 77.4011 54.8917 77.6024 55.4138 77.7753C56.501 78.1451 57.6326 78.4003 58.742 78.6591C61.1827 79.2175 63.6271 79.7685 66.0752 80.2973C66.763 80.4453 67.4545 80.5932 68.1461 80.73C68.8376 80.8668 69.592 81.0369 70.3242 81.1183C70.3415 81.1231 70.3601 81.121 70.3759 81.1126C70.3918 81.1041 70.4038 81.0899 70.4095 81.0728C70.4152 81.0557 70.4141 81.0371 70.4065 81.0208C70.3989 81.0045 70.3853 80.9918 70.3686 80.9852Z" fill="#263238" style="fill:#263238;fill:color(display-p3 0.1490 0.1961 0.2196);fill-opacity:1;"/>
<path d="M66.5188 76.5102L83.4335 78.8103C83.4335 78.8103 80.342 61.2263 77.0544 55.4019C73.8113 49.6552 70.2316 53.453 68.867 60.4053C67.3361 68.112 66.5188 76.5102 66.5188 76.5102Z" fill="#3F3F3F" style="fill:#3F3F3F;fill:color(display-p3 0.2481 0.2481 0.2481);fill-opacity:1;"/>
<path d="M82.1654 76.2624C81.692 76.1514 81.2076 76.0812 80.7342 75.9776C80.2609 75.8741 79.806 75.8038 79.3401 75.7298C78.3897 75.5819 77.4356 75.4488 76.4815 75.3194C74.6029 75.0605 72.728 74.7758 70.842 74.5798C69.7696 74.4614 68.7009 74.3024 67.6285 74.21C67.6206 74.21 67.6131 74.2131 67.6075 74.2186C67.602 74.2242 67.5989 74.2317 67.5989 74.2395C67.5989 74.2474 67.602 74.2549 67.6075 74.2605C67.6131 74.266 67.6206 74.2691 67.6285 74.2691C69.496 74.7055 71.4004 75.0309 73.2938 75.3379C75.1872 75.6448 77.051 75.9332 78.937 76.1403C79.4658 76.1958 79.9946 76.2661 80.5272 76.2919C81.0597 76.3178 81.6181 76.3659 82.1617 76.377C82.1769 76.3775 82.1916 76.3719 82.2027 76.3615C82.2138 76.3511 82.2203 76.3367 82.2208 76.3215C82.2213 76.3063 82.2158 76.2916 82.2054 76.2805C82.195 76.2694 82.1806 76.2628 82.1654 76.2624Z" fill="#263238" style="fill:#263238;fill:color(display-p3 0.1490 0.1961 0.2196);fill-opacity:1;"/>
</svg>
